<svg aria-roledescription="er" role="graphics-document document" viewBox="-164.34878540039062 0 747.8712158203125 1228" style="max-width: 747.871px; background-color: white;" xmlns:xlink="http://www.w3.org/1999/xlink" xmlns="http://www.w3.org/2000/svg" width="100%" id="my-svg"><style>#my-svg{font-family:"trebuchet ms",verdana,arial,sans-serif;font-size:16px;fill:#000000;}#my-svg .error-icon{fill:#552222;}#my-svg .error-text{fill:#552222;stroke:#552222;}#my-svg .edge-thickness-normal{stroke-width:2px;}#my-svg .edge-thickness-thick{stroke-width:3.5px;}#my-svg .edge-pattern-solid{stroke-dasharray:0;}#my-svg .edge-pattern-dashed{stroke-dasharray:3;}#my-svg .edge-pattern-dotted{stroke-dasharray:2;}#my-svg .marker{fill:#000000;stroke:#000000;}#my-svg .marker.cross{stroke:#000000;}#my-svg svg{font-family:"trebuchet ms",verdana,arial,sans-serif;font-size:16px;}#my-svg .entityBox{fill:#cde498;stroke:#13540c;}#my-svg .attributeBoxOdd{fill:#ffffff;stroke:#13540c;}#my-svg .attributeBoxEven{fill:#f2f2f2;stroke:#13540c;}#my-svg .relationshipLabelBox{fill:hsl(78.1578947368, 58.4615384615%, 84.5098039216%);opacity:0.7;background-color:hsl(78.1578947368, 58.4615384615%, 84.5098039216%);}#my-svg .relationshipLabelBox rect{opacity:0.5;}#my-svg .relationshipLine{stroke:#000000;}#my-svg .entityTitleText{text-anchor:middle;font-size:18px;fill:#000000;}#my-svg #MD_PARENT_START{fill:#f5f5f5!important;stroke:#000000!important;stroke-width:1;}#my-svg #MD_PARENT_END{fill:#f5f5f5!important;stroke:#000000!important;stroke-width:1;}#my-svg :root{--mermaid-font-family:"trebuchet ms",verdana,arial,sans-serif;}</style><g/><defs><marker orient="auto" markerHeight="240" markerWidth="190" refY="7" refX="0" id="MD_PARENT_START"><path d="M 18,7 L9,13 L1,7 L9,1 Z"/></marker></defs><defs><marker orient="auto" markerHeight="28" markerWidth="20" refY="7" refX="19" id="MD_PARENT_END"><path d="M 18,7 L9,13 L1,7 L9,1 Z"/></marker></defs><defs><marker orient="auto" markerHeight="18" markerWidth="18" refY="9" refX="0" id="ONLY_ONE_START"><path d="M9,0 L9,18 M15,0 L15,18" fill="none" stroke="gray"/></marker></defs><defs><marker orient="auto" markerHeight="18" markerWidth="18" refY="9" refX="18" id="ONLY_ONE_END"><path d="M3,0 L3,18 M9,0 L9,18" fill="none" stroke="gray"/></marker></defs><defs><marker orient="auto" markerHeight="18" markerWidth="30" refY="9" refX="0" id="ZERO_OR_ONE_START"><circle r="6" cy="9" cx="21" fill="white" stroke="gray"/><path d="M9,0 L9,18" fill="none" stroke="gray"/></marker></defs><defs><marker orient="auto" markerHeight="18" markerWidth="30" refY="9" refX="30" id="ZERO_OR_ONE_END"><circle r="6" cy="9" cx="9" fill="white" stroke="gray"/><path d="M21,0 L21,18" fill="none" stroke="gray"/></marker></defs><defs><marker orient="auto" markerHeight="36" markerWidth="45" refY="18" refX="18" id="ONE_OR_MORE_START"><path d="M0,18 Q 18,0 36,18 Q 18,36 0,18 M42,9 L42,27" fill="none" stroke="gray"/></marker></defs><defs><marker orient="auto" markerHeight="36" markerWidth="45" refY="18" refX="27" id="ONE_OR_MORE_END"><path d="M3,9 L3,27 M9,18 Q27,0 45,18 Q27,36 9,18" fill="none" stroke="gray"/></marker></defs><defs><marker orient="auto" markerHeight="36" markerWidth="57" refY="18" refX="18" id="ZERO_OR_MORE_START"><circle r="6" cy="18" cx="48" fill="white" stroke="gray"/><path d="M0,18 Q18,0 36,18 Q18,36 0,18" fill="none" stroke="gray"/></marker></defs><defs><marker orient="auto" markerHeight="36" markerWidth="57" refY="18" refX="39" id="ZERO_OR_MORE_END"><circle r="6" cy="18" cx="9" fill="white" stroke="gray"/><path d="M21,18 Q39,0 57,18 Q39,36 21,18" fill="none" stroke="gray"/></marker></defs><path style="stroke: gray; fill: none;" marker-start="url(#ZERO_OR_MORE_START)" marker-end="url(#ZERO_OR_MORE_END)" d="M253.058,155L246.839,163.333C240.619,171.667,228.181,188.333,224.938,205C221.695,221.667,227.647,238.333,230.623,246.667L233.6,255" class="er relationshipLine"/><path style="stroke: gray; fill: none;" marker-start="url(#ZERO_OR_MORE_START)" marker-end="url(#ZERO_OR_MORE_END)" d="M225.887,128.392L201.674,141.16C177.461,153.928,129.034,179.464,104.821,215.565C80.608,251.667,80.608,298.333,80.608,345C80.608,391.667,80.608,438.333,97.435,473.187C114.262,508.041,147.917,531.082,164.744,542.602L181.571,554.122" class="er relationshipLine"/><path style="stroke: gray; fill: none;" marker-start="url(#ZERO_OR_MORE_START)" marker-end="url(#ZERO_OR_MORE_END)" d="M225.887,115.725L185.007,130.604C144.127,145.483,62.368,175.242,21.488,213.454C-19.392,251.667,-19.392,298.333,-19.392,345C-19.392,391.667,-19.392,438.333,-19.392,483.083C-19.392,527.833,-19.392,570.667,-19.392,613.5C-19.392,656.333,-19.392,699.167,13.355,740.567C46.102,781.967,111.596,821.934,144.342,841.917L177.089,861.9" class="er relationshipLine"/><path style="stroke: gray; fill: none;" marker-start="url(#ZERO_OR_ONE_START)" marker-end="url(#ONLY_ONE_END)" d="M181.571,642.246L131.41,658.872C81.25,675.497,-19.071,708.749,-69.231,754.374C-119.392,800,-119.392,858,-119.392,916C-119.392,974,-119.392,1032,-96.16,1070.757C-72.928,1109.515,-26.464,1129.03,-3.232,1138.787L20,1148.544" class="er relationshipLine"/><path style="stroke: gray; fill: none;" marker-start="url(#ZERO_OR_MORE_START)" marker-end="url(#ZERO_OR_MORE_END)" d="M297.282,535L300.359,526.667C303.436,518.333,309.589,501.667,309.689,485C309.79,468.333,303.838,451.667,300.861,443.333L297.885,435" class="er relationshipLine"/><path style="stroke: gray; fill: none;" marker-start="url(#ZERO_OR_ONE_START)" marker-end="url(#ONLY_ONE_END)" d="M355.028,552.459L371.003,541.216C386.978,529.973,418.927,507.486,434.902,472.91C450.876,438.333,450.876,391.667,450.876,345C450.876,298.333,450.876,251.667,439.227,219.05C427.578,186.433,404.279,167.866,392.63,158.582L380.98,149.299" class="er relationshipLine"/><path style="stroke: gray; fill: none;" marker-start="url(#ZERO_OR_MORE_START)" marker-end="url(#ZERO_OR_MORE_END)" d="M259.218,692L258.254,700.333C257.29,708.667,255.362,725.333,254.987,742C254.612,758.667,255.792,775.333,256.381,783.667L256.971,792" class="er relationshipLine"/><path style="stroke: gray; fill: none;" marker-start="url(#ZERO_OR_ONE_START)" marker-end="url(#ONLY_ONE_END)" d="M265.742,1040L265.742,1048.333C265.742,1056.667,265.742,1073.333,244.988,1091.083C224.234,1108.833,182.725,1127.667,161.971,1137.084L141.217,1146.5" class="er relationshipLine"/><path style="stroke: gray; fill: none;" marker-start="url(#ZERO_OR_ONE_START)" marker-end="url(#ZERO_OR_ONE_END)" d="M354.396,832.678L370.476,817.565C386.556,802.452,418.716,772.226,418.822,745.87C418.927,719.514,386.978,697.027,371.003,685.784L355.028,674.541" class="er relationshipLine"/><path style="stroke: gray; fill: none;" marker-start="url(#ZERO_OR_ONE_START)" marker-end="url(#ONLY_ONE_END)" d="M354.396,861.9L387.142,841.917C419.889,821.934,485.383,781.967,518.13,740.567C550.876,699.167,550.876,656.333,550.876,613.5C550.876,570.667,550.876,527.833,550.876,483.083C550.876,438.333,550.876,391.667,550.876,345C550.876,298.333,550.876,251.667,522.56,214.887C494.244,178.108,437.612,151.216,409.296,137.77L380.98,124.324" class="er relationshipLine"/><path style="stroke: gray; fill: none;" marker-start="url(#ZERO_OR_ONE_START)" marker-end="url(#ZERO_OR_ONE_END)" d="M233.6,435L230.623,443.333C227.647,451.667,221.695,468.333,222.127,485C222.559,501.667,229.376,518.333,232.784,526.667L236.193,535" class="er relationshipLine"/><path style="stroke: gray; fill: none;" marker-start="url(#ZERO_OR_ONE_START)" marker-end="url(#ONLY_ONE_END)" d="M297.885,255L300.861,246.667C303.838,238.333,309.79,221.667,311.893,205C313.996,188.333,312.25,171.667,311.378,163.333L310.505,155" class="er relationshipLine"/><g transform="translate(20,1140 )" id="entity-transactiontype-3635e027-fcff-56db-8f28-b74f9f7607b6"><rect height="68" width="121.216796875" y="0" x="0" class="er entityBox"/><text style="dominant-baseline: middle; text-anchor: middle; font-size: 12px;" transform="translate(60.6083984375,12)" y="0" x="0" id="text-entity-transactiontype-3635e027-fcff-56db-8f28-b74f9f7607b6" class="er entityLabel">transaction_type</text><rect height="22" width="60.6083984375" y="24" x="0" class="er attributeBoxOdd"/><text style="dominant-baseline: middle; font-size: 10.2px;" transform="translate(5,35)" y="0" x="0" id="text-entity-transactiontype-3635e027-fcff-56db-8f28-b74f9f7607b6-attr-1-type" class="er entityLabel">income</text><rect height="22" width="60.6083984375" y="24" x="60.6083984375" class="er attributeBoxOdd"/><text style="dominant-baseline: middle; font-size: 10.2px;" transform="translate(65.6083984375,35)" y="0" x="0" id="text-entity-transactiontype-3635e027-fcff-56db-8f28-b74f9f7607b6-attr-1-name" class="er entityLabel">income</text><rect height="22" width="60.6083984375" y="46" x="0" class="er attributeBoxEven"/><text style="dominant-baseline: middle; font-size: 10.2px;" transform="translate(5,57)" y="0" x="0" id="text-entity-transactiontype-3635e027-fcff-56db-8f28-b74f9f7607b6-attr-2-type" class="er entityLabel">expense</text><rect height="22" width="60.6083984375" y="46" x="60.6083984375" class="er attributeBoxEven"/><text style="dominant-baseline: middle; font-size: 10.2px;" transform="translate(65.6083984375,57)" y="0" x="0" id="text-entity-transactiontype-3635e027-fcff-56db-8f28-b74f9f7607b6-attr-2-name" class="er entityLabel">expense</text></g><g transform="translate(225.8865852355957,20 )" id="entity-users-33ae1e26-be31-5c1d-bf65-e859e9d0308e"><rect height="135" width="155.0937957763672" y="0" x="0" class="er entityBox"/><text style="dominant-baseline: middle; text-anchor: middle; font-size: 12px;" transform="translate(77.5468978881836,12)" y="0" x="0" id="text-entity-users-33ae1e26-be31-5c1d-bf65-e859e9d0308e" class="er entityLabel">users</text><rect height="23" width="54.095550537109375" y="24" x="0" class="er attributeBoxOdd"/><text style="dominant-baseline: middle; font-size: 10.2px;" transform="translate(5,35.5)" y="0" x="0" id="text-entity-users-33ae1e26-be31-5c1d-bf65-e859e9d0308e-attr-1-type" class="er entityLabel">String</text><rect height="23" width="78.42012023925781" y="24" x="54.095550537109375" class="er attributeBoxOdd"/><text style="dominant-baseline: middle; font-size: 10.2px;" transform="translate(59.095550537109375,35.5)" y="0" x="0" id="text-entity-users-33ae1e26-be31-5c1d-bf65-e859e9d0308e-attr-1-name" class="er entityLabel">id</text><rect height="23" width="22.578125" y="24" x="132.5156707763672" class="er attributeBoxOdd"/><text style="dominant-baseline: middle; font-size: 10.2px;" transform="translate(137.5156707763672,35.5)" y="0" x="0" id="text-entity-users-33ae1e26-be31-5c1d-bf65-e859e9d0308e-attr-1-comment" class="er entityLabel">🗝️</text><rect height="22" width="54.095550537109375" y="47" x="0" class="er attributeBoxEven"/><text style="dominant-baseline: middle; font-size: 10.2px;" transform="translate(5,58)" y="0" x="0" id="text-entity-users-33ae1e26-be31-5c1d-bf65-e859e9d0308e-attr-2-type" class="er entityLabel">String</text><rect height="22" width="78.42012023925781" y="47" x="54.095550537109375" class="er attributeBoxEven"/><text style="dominant-baseline: middle; font-size: 10.2px;" transform="translate(59.095550537109375,58)" y="0" x="0" id="text-entity-users-33ae1e26-be31-5c1d-bf65-e859e9d0308e-attr-2-name" class="er entityLabel">email</text><rect height="22" width="22.578125" y="47" x="132.5156707763672" class="er attributeBoxEven"/><text style="dominant-baseline: middle; font-size: 10.2px;" transform="translate(137.5156707763672,58)" y="0" x="0" id="text-entity-users-33ae1e26-be31-5c1d-bf65-e859e9d0308e-attr-2-comment" class="er entityLabel"/><rect height="22" width="54.095550537109375" y="69" x="0" class="er attributeBoxOdd"/><text style="dominant-baseline: middle; font-size: 10.2px;" transform="translate(5,80)" y="0" x="0" id="text-entity-users-33ae1e26-be31-5c1d-bf65-e859e9d0308e-attr-3-type" class="er entityLabel">String</text><rect height="22" width="78.42012023925781" y="69" x="54.095550537109375" class="er attributeBoxOdd"/><text style="dominant-baseline: middle; font-size: 10.2px;" transform="translate(59.095550537109375,80)" y="0" x="0" id="text-entity-users-33ae1e26-be31-5c1d-bf65-e859e9d0308e-attr-3-name" class="er entityLabel">password_hash</text><rect height="22" width="22.578125" y="69" x="132.5156707763672" class="er attributeBoxOdd"/><text style="dominant-baseline: middle; font-size: 10.2px;" transform="translate(137.5156707763672,80)" y="0" x="0" id="text-entity-users-33ae1e26-be31-5c1d-bf65-e859e9d0308e-attr-3-comment" class="er entityLabel"/><rect height="22" width="54.095550537109375" y="91" x="0" class="er attributeBoxEven"/><text style="dominant-baseline: middle; font-size: 10.2px;" transform="translate(5,102)" y="0" x="0" id="text-entity-users-33ae1e26-be31-5c1d-bf65-e859e9d0308e-attr-4-type" class="er entityLabel">DateTime</text><rect height="22" width="78.42012023925781" y="91" x="54.095550537109375" class="er attributeBoxEven"/><text style="dominant-baseline: middle; font-size: 10.2px;" transform="translate(59.095550537109375,102)" y="0" x="0" id="text-entity-users-33ae1e26-be31-5c1d-bf65-e859e9d0308e-attr-4-name" class="er entityLabel">created_at</text><rect height="22" width="22.578125" y="91" x="132.5156707763672" class="er attributeBoxEven"/><text style="dominant-baseline: middle; font-size: 10.2px;" transform="translate(137.5156707763672,102)" y="0" x="0" id="text-entity-users-33ae1e26-be31-5c1d-bf65-e859e9d0308e-attr-4-comment" class="er entityLabel"/><rect height="22" width="54.095550537109375" y="113" x="0" class="er attributeBoxOdd"/><text style="dominant-baseline: middle; font-size: 10.2px;" transform="translate(5,124)" y="0" x="0" id="text-entity-users-33ae1e26-be31-5c1d-bf65-e859e9d0308e-attr-5-type" class="er entityLabel">DateTime</text><rect height="22" width="78.42012023925781" y="113" x="54.095550537109375" class="er attributeBoxOdd"/><text style="dominant-baseline: middle; font-size: 10.2px;" transform="translate(59.095550537109375,124)" y="0" x="0" id="text-entity-users-33ae1e26-be31-5c1d-bf65-e859e9d0308e-attr-5-name" class="er entityLabel">updated_at</text><rect height="22" width="22.578125" y="113" x="132.5156707763672" class="er attributeBoxOdd"/><text style="dominant-baseline: middle; font-size: 10.2px;" transform="translate(137.5156707763672,124)" y="0" x="0" id="text-entity-users-33ae1e26-be31-5c1d-bf65-e859e9d0308e-attr-5-comment" class="er entityLabel"/></g><g transform="translate(181.5706024169922,535 )" id="entity-categories-a09d50f2-ac74-5856-9390-f2cc9b07f93b"><rect height="157" width="173.4578094482422" y="0" x="0" class="er entityBox"/><text style="dominant-baseline: middle; text-anchor: middle; font-size: 12px;" transform="translate(86.7289047241211,12)" y="0" x="0" id="text-entity-categories-a09d50f2-ac74-5856-9390-f2cc9b07f93b" class="er entityLabel">categories</text><rect height="23" width="87.58415222167969" y="24" x="0" class="er attributeBoxOdd"/><text style="dominant-baseline: middle; font-size: 10.2px;" transform="translate(5,35.5)" y="0" x="0" id="text-entity-categories-a09d50f2-ac74-5856-9390-f2cc9b07f93b-attr-1-type" class="er entityLabel">String</text><rect height="23" width="63.2955322265625" y="24" x="87.58415222167969" class="er attributeBoxOdd"/><text style="dominant-baseline: middle; font-size: 10.2px;" transform="translate(92.58415222167969,35.5)" y="0" x="0" id="text-entity-categories-a09d50f2-ac74-5856-9390-f2cc9b07f93b-attr-1-name" class="er entityLabel">id</text><rect height="23" width="22.578125" y="24" x="150.8796844482422" class="er attributeBoxOdd"/><text style="dominant-baseline: middle; font-size: 10.2px;" transform="translate(155.8796844482422,35.5)" y="0" x="0" id="text-entity-categories-a09d50f2-ac74-5856-9390-f2cc9b07f93b-attr-1-comment" class="er entityLabel">🗝️</text><rect height="22" width="87.58415222167969" y="47" x="0" class="er attributeBoxEven"/><text style="dominant-baseline: middle; font-size: 10.2px;" transform="translate(5,58)" y="0" x="0" id="text-entity-categories-a09d50f2-ac74-5856-9390-f2cc9b07f93b-attr-2-type" class="er entityLabel">String</text><rect height="22" width="63.2955322265625" y="47" x="87.58415222167969" class="er attributeBoxEven"/><text style="dominant-baseline: middle; font-size: 10.2px;" transform="translate(92.58415222167969,58)" y="0" x="0" id="text-entity-categories-a09d50f2-ac74-5856-9390-f2cc9b07f93b-attr-2-name" class="er entityLabel">user_id</text><rect height="22" width="22.578125" y="47" x="150.8796844482422" class="er attributeBoxEven"/><text style="dominant-baseline: middle; font-size: 10.2px;" transform="translate(155.8796844482422,58)" y="0" x="0" id="text-entity-categories-a09d50f2-ac74-5856-9390-f2cc9b07f93b-attr-2-comment" class="er entityLabel"/><rect height="22" width="87.58415222167969" y="69" x="0" class="er attributeBoxOdd"/><text style="dominant-baseline: middle; font-size: 10.2px;" transform="translate(5,80)" y="0" x="0" id="text-entity-categories-a09d50f2-ac74-5856-9390-f2cc9b07f93b-attr-3-type" class="er entityLabel">String</text><rect height="22" width="63.2955322265625" y="69" x="87.58415222167969" class="er attributeBoxOdd"/><text style="dominant-baseline: middle; font-size: 10.2px;" transform="translate(92.58415222167969,80)" y="0" x="0" id="text-entity-categories-a09d50f2-ac74-5856-9390-f2cc9b07f93b-attr-3-name" class="er entityLabel">name</text><rect height="22" width="22.578125" y="69" x="150.8796844482422" class="er attributeBoxOdd"/><text style="dominant-baseline: middle; font-size: 10.2px;" transform="translate(155.8796844482422,80)" y="0" x="0" id="text-entity-categories-a09d50f2-ac74-5856-9390-f2cc9b07f93b-attr-3-comment" class="er entityLabel"/><rect height="22" width="87.58415222167969" y="91" x="0" class="er attributeBoxEven"/><text style="dominant-baseline: middle; font-size: 10.2px;" transform="translate(5,102)" y="0" x="0" id="text-entity-categories-a09d50f2-ac74-5856-9390-f2cc9b07f93b-attr-4-type" class="er entityLabel">transaction_type</text><rect height="22" width="63.2955322265625" y="91" x="87.58415222167969" class="er attributeBoxEven"/><text style="dominant-baseline: middle; font-size: 10.2px;" transform="translate(92.58415222167969,102)" y="0" x="0" id="text-entity-categories-a09d50f2-ac74-5856-9390-f2cc9b07f93b-attr-4-name" class="er entityLabel">type</text><rect height="22" width="22.578125" y="91" x="150.8796844482422" class="er attributeBoxEven"/><text style="dominant-baseline: middle; font-size: 10.2px;" transform="translate(155.8796844482422,102)" y="0" x="0" id="text-entity-categories-a09d50f2-ac74-5856-9390-f2cc9b07f93b-attr-4-comment" class="er entityLabel"/><rect height="22" width="87.58415222167969" y="113" x="0" class="er attributeBoxOdd"/><text style="dominant-baseline: middle; font-size: 10.2px;" transform="translate(5,124)" y="0" x="0" id="text-entity-categories-a09d50f2-ac74-5856-9390-f2cc9b07f93b-attr-5-type" class="er entityLabel">DateTime</text><rect height="22" width="63.2955322265625" y="113" x="87.58415222167969" class="er attributeBoxOdd"/><text style="dominant-baseline: middle; font-size: 10.2px;" transform="translate(92.58415222167969,124)" y="0" x="0" id="text-entity-categories-a09d50f2-ac74-5856-9390-f2cc9b07f93b-attr-5-name" class="er entityLabel">created_at</text><rect height="22" width="22.578125" y="113" x="150.8796844482422" class="er attributeBoxOdd"/><text style="dominant-baseline: middle; font-size: 10.2px;" transform="translate(155.8796844482422,124)" y="0" x="0" id="text-entity-categories-a09d50f2-ac74-5856-9390-f2cc9b07f93b-attr-5-comment" class="er entityLabel"/><rect height="22" width="87.58415222167969" y="135" x="0" class="er attributeBoxEven"/><text style="dominant-baseline: middle; font-size: 10.2px;" transform="translate(5,146)" y="0" x="0" id="text-entity-categories-a09d50f2-ac74-5856-9390-f2cc9b07f93b-attr-6-type" class="er entityLabel">DateTime</text><rect height="22" width="63.2955322265625" y="135" x="87.58415222167969" class="er attributeBoxEven"/><text style="dominant-baseline: middle; font-size: 10.2px;" transform="translate(92.58415222167969,146)" y="0" x="0" id="text-entity-categories-a09d50f2-ac74-5856-9390-f2cc9b07f93b-attr-6-name" class="er entityLabel">updated_at</text><rect height="22" width="22.578125" y="135" x="150.8796844482422" class="er attributeBoxEven"/><text style="dominant-baseline: middle; font-size: 10.2px;" transform="translate(155.8796844482422,146)" y="0" x="0" id="text-entity-categories-a09d50f2-ac74-5856-9390-f2cc9b07f93b-attr-6-comment" class="er entityLabel"/></g><g transform="translate(177.08906173706055,792 )" id="entity-transactions-a3d7e83a-4348-578f-b8ec-7c8b8dbef31a"><rect height="248" width="177.30662536621094" y="0" x="0" class="er entityBox"/><text style="dominant-baseline: middle; text-anchor: middle; font-size: 12px;" transform="translate(88.65331268310547,12)" y="0" x="0" id="text-entity-transactions-a3d7e83a-4348-578f-b8ec-7c8b8dbef31a" class="er entityLabel">transactions</text><rect height="23" width="87.58415222167969" y="24" x="0" class="er attributeBoxOdd"/><text style="dominant-baseline: middle; font-size: 10.2px;" transform="translate(5,35.5)" y="0" x="0" id="text-entity-transactions-a3d7e83a-4348-578f-b8ec-7c8b8dbef31a-attr-1-type" class="er entityLabel">String</text><rect height="23" width="67.14434814453125" y="24" x="87.58415222167969" class="er attributeBoxOdd"/><text style="dominant-baseline: middle; font-size: 10.2px;" transform="translate(92.58415222167969,35.5)" y="0" x="0" id="text-entity-transactions-a3d7e83a-4348-578f-b8ec-7c8b8dbef31a-attr-1-name" class="er entityLabel">id</text><rect height="23" width="22.578125" y="24" x="154.72850036621094" class="er attributeBoxOdd"/><text style="dominant-baseline: middle; font-size: 10.2px;" transform="translate(159.72850036621094,35.5)" y="0" x="0" id="text-entity-transactions-a3d7e83a-4348-578f-b8ec-7c8b8dbef31a-attr-1-comment" class="er entityLabel">🗝️</text><rect height="22" width="87.58415222167969" y="47" x="0" class="er attributeBoxEven"/><text style="dominant-baseline: middle; font-size: 10.2px;" transform="translate(5,58)" y="0" x="0" id="text-entity-transactions-a3d7e83a-4348-578f-b8ec-7c8b8dbef31a-attr-2-type" class="er entityLabel">String</text><rect height="22" width="67.14434814453125" y="47" x="87.58415222167969" class="er attributeBoxEven"/><text style="dominant-baseline: middle; font-size: 10.2px;" transform="translate(92.58415222167969,58)" y="0" x="0" id="text-entity-transactions-a3d7e83a-4348-578f-b8ec-7c8b8dbef31a-attr-2-name" class="er entityLabel">user_id</text><rect height="22" width="22.578125" y="47" x="154.72850036621094" class="er attributeBoxEven"/><text style="dominant-baseline: middle; font-size: 10.2px;" transform="translate(159.72850036621094,58)" y="0" x="0" id="text-entity-transactions-a3d7e83a-4348-578f-b8ec-7c8b8dbef31a-attr-2-comment" class="er entityLabel"/><rect height="23" width="87.58415222167969" y="69" x="0" class="er attributeBoxOdd"/><text style="dominant-baseline: middle; font-size: 10.2px;" transform="translate(5,80.5)" y="0" x="0" id="text-entity-transactions-a3d7e83a-4348-578f-b8ec-7c8b8dbef31a-attr-3-type" class="er entityLabel">String</text><rect height="23" width="67.14434814453125" y="69" x="87.58415222167969" class="er attributeBoxOdd"/><text style="dominant-baseline: middle; font-size: 10.2px;" transform="translate(92.58415222167969,80.5)" y="0" x="0" id="text-entity-transactions-a3d7e83a-4348-578f-b8ec-7c8b8dbef31a-attr-3-name" class="er entityLabel">category_id</text><rect height="23" width="22.578125" y="69" x="154.72850036621094" class="er attributeBoxOdd"/><text style="dominant-baseline: middle; font-size: 10.2px;" transform="translate(159.72850036621094,80.5)" y="0" x="0" id="text-entity-transactions-a3d7e83a-4348-578f-b8ec-7c8b8dbef31a-attr-3-comment" class="er entityLabel">❓</text><rect height="22" width="87.58415222167969" y="92" x="0" class="er attributeBoxEven"/><text style="dominant-baseline: middle; font-size: 10.2px;" transform="translate(5,103)" y="0" x="0" id="text-entity-transactions-a3d7e83a-4348-578f-b8ec-7c8b8dbef31a-attr-4-type" class="er entityLabel">transaction_type</text><rect height="22" width="67.14434814453125" y="92" x="87.58415222167969" class="er attributeBoxEven"/><text style="dominant-baseline: middle; font-size: 10.2px;" transform="translate(92.58415222167969,103)" y="0" x="0" id="text-entity-transactions-a3d7e83a-4348-578f-b8ec-7c8b8dbef31a-attr-4-name" class="er entityLabel">type</text><rect height="22" width="22.578125" y="92" x="154.72850036621094" class="er attributeBoxEven"/><text style="dominant-baseline: middle; font-size: 10.2px;" transform="translate(159.72850036621094,103)" y="0" x="0" id="text-entity-transactions-a3d7e83a-4348-578f-b8ec-7c8b8dbef31a-attr-4-comment" class="er entityLabel"/><rect height="22" width="87.58415222167969" y="114" x="0" class="er attributeBoxOdd"/><text style="dominant-baseline: middle; font-size: 10.2px;" transform="translate(5,125)" y="0" x="0" id="text-entity-transactions-a3d7e83a-4348-578f-b8ec-7c8b8dbef31a-attr-5-type" class="er entityLabel">Decimal</text><rect height="22" width="67.14434814453125" y="114" x="87.58415222167969" class="er attributeBoxOdd"/><text style="dominant-baseline: middle; font-size: 10.2px;" transform="translate(92.58415222167969,125)" y="0" x="0" id="text-entity-transactions-a3d7e83a-4348-578f-b8ec-7c8b8dbef31a-attr-5-name" class="er entityLabel">amount</text><rect height="22" width="22.578125" y="114" x="154.72850036621094" class="er attributeBoxOdd"/><text style="dominant-baseline: middle; font-size: 10.2px;" transform="translate(159.72850036621094,125)" y="0" x="0" id="text-entity-transactions-a3d7e83a-4348-578f-b8ec-7c8b8dbef31a-attr-5-comment" class="er entityLabel"/><rect height="22" width="87.58415222167969" y="136" x="0" class="er attributeBoxEven"/><text style="dominant-baseline: middle; font-size: 10.2px;" transform="translate(5,147)" y="0" x="0" id="text-entity-transactions-a3d7e83a-4348-578f-b8ec-7c8b8dbef31a-attr-6-type" class="er entityLabel">DateTime</text><rect height="22" width="67.14434814453125" y="136" x="87.58415222167969" class="er attributeBoxEven"/><text style="dominant-baseline: middle; font-size: 10.2px;" transform="translate(92.58415222167969,147)" y="0" x="0" id="text-entity-transactions-a3d7e83a-4348-578f-b8ec-7c8b8dbef31a-attr-6-name" class="er entityLabel">occurred_on</text><rect height="22" width="22.578125" y="136" x="154.72850036621094" class="er attributeBoxEven"/><text style="dominant-baseline: middle; font-size: 10.2px;" transform="translate(159.72850036621094,147)" y="0" x="0" id="text-entity-transactions-a3d7e83a-4348-578f-b8ec-7c8b8dbef31a-attr-6-comment" class="er entityLabel"/><rect height="23" width="87.58415222167969" y="158" x="0" class="er attributeBoxOdd"/><text style="dominant-baseline: middle; font-size: 10.2px;" transform="translate(5,169.5)" y="0" x="0" id="text-entity-transactions-a3d7e83a-4348-578f-b8ec-7c8b8dbef31a-attr-7-type" class="er entityLabel">String</text><rect height="23" width="67.14434814453125" y="158" x="87.58415222167969" class="er attributeBoxOdd"/><text style="dominant-baseline: middle; font-size: 10.2px;" transform="translate(92.58415222167969,169.5)" y="0" x="0" id="text-entity-transactions-a3d7e83a-4348-578f-b8ec-7c8b8dbef31a-attr-7-name" class="er entityLabel">note</text><rect height="23" width="22.578125" y="158" x="154.72850036621094" class="er attributeBoxOdd"/><text style="dominant-baseline: middle; font-size: 10.2px;" transform="translate(159.72850036621094,169.5)" y="0" x="0" id="text-entity-transactions-a3d7e83a-4348-578f-b8ec-7c8b8dbef31a-attr-7-comment" class="er entityLabel">❓</text><rect height="22" width="87.58415222167969" y="181" x="0" class="er attributeBoxEven"/><text style="dominant-baseline: middle; font-size: 10.2px;" transform="translate(5,192)" y="0" x="0" id="text-entity-transactions-a3d7e83a-4348-578f-b8ec-7c8b8dbef31a-attr-8-type" class="er entityLabel">DateTime</text><rect height="22" width="67.14434814453125" y="181" x="87.58415222167969" class="er attributeBoxEven"/><text style="dominant-baseline: middle; font-size: 10.2px;" transform="translate(92.58415222167969,192)" y="0" x="0" id="text-entity-transactions-a3d7e83a-4348-578f-b8ec-7c8b8dbef31a-attr-8-name" class="er entityLabel">created_at</text><rect height="22" width="22.578125" y="181" x="154.72850036621094" class="er attributeBoxEven"/><text style="dominant-baseline: middle; font-size: 10.2px;" transform="translate(159.72850036621094,192)" y="0" x="0" id="text-entity-transactions-a3d7e83a-4348-578f-b8ec-7c8b8dbef31a-attr-8-comment" class="er entityLabel"/><rect height="22" width="87.58415222167969" y="203" x="0" class="er attributeBoxOdd"/><text style="dominant-baseline: middle; font-size: 10.2px;" transform="translate(5,214)" y="0" x="0" id="text-entity-transactions-a3d7e83a-4348-578f-b8ec-7c8b8dbef31a-attr-9-type" class="er entityLabel">DateTime</text><rect height="22" width="67.14434814453125" y="203" x="87.58415222167969" class="er attributeBoxOdd"/><text style="dominant-baseline: middle; font-size: 10.2px;" transform="translate(92.58415222167969,214)" y="0" x="0" id="text-entity-transactions-a3d7e83a-4348-578f-b8ec-7c8b8dbef31a-attr-9-name" class="er entityLabel">updated_at</text><rect height="22" width="22.578125" y="203" x="154.72850036621094" class="er attributeBoxOdd"/><text style="dominant-baseline: middle; font-size: 10.2px;" transform="translate(159.72850036621094,214)" y="0" x="0" id="text-entity-transactions-a3d7e83a-4348-578f-b8ec-7c8b8dbef31a-attr-9-comment" class="er entityLabel"/><rect height="23" width="87.58415222167969" y="225" x="0" class="er attributeBoxEven"/><text style="dominant-baseline: middle; font-size: 10.2px;" transform="translate(5,236.5)" y="0" x="0" id="text-entity-transactions-a3d7e83a-4348-578f-b8ec-7c8b8dbef31a-attr-10-type" class="er entityLabel">DateTime</text><rect height="23" width="67.14434814453125" y="225" x="87.58415222167969" class="er attributeBoxEven"/><text style="dominant-baseline: middle; font-size: 10.2px;" transform="translate(92.58415222167969,236.5)" y="0" x="0" id="text-entity-transactions-a3d7e83a-4348-578f-b8ec-7c8b8dbef31a-attr-10-name" class="er entityLabel">deleted_at</text><rect height="23" width="22.578125" y="225" x="154.72850036621094" class="er attributeBoxEven"/><text style="dominant-baseline: middle; font-size: 10.2px;" transform="translate(159.72850036621094,236.5)" y="0" x="0" id="text-entity-transactions-a3d7e83a-4348-578f-b8ec-7c8b8dbef31a-attr-10-comment" class="er entityLabel">❓</text></g><g transform="translate(195.47442245483398,255 )" id="entity-budgets-998ee43b-d48b-5831-8eda-756ba70f3d26"><rect height="180" width="140.53590393066406" y="0" x="0" class="er entityBox"/><text style="dominant-baseline: middle; text-anchor: middle; font-size: 12px;" transform="translate(70.26795196533203,12)" y="0" x="0" id="text-entity-budgets-998ee43b-d48b-5831-8eda-756ba70f3d26" class="er entityLabel">budgets</text><rect height="23" width="54.095550537109375" y="24" x="0" class="er attributeBoxOdd"/><text style="dominant-baseline: middle; font-size: 10.2px;" transform="translate(5,35.5)" y="0" x="0" id="text-entity-budgets-998ee43b-d48b-5831-8eda-756ba70f3d26-attr-1-type" class="er entityLabel">String</text><rect height="23" width="63.86222839355469" y="24" x="54.095550537109375" class="er attributeBoxOdd"/><text style="dominant-baseline: middle; font-size: 10.2px;" transform="translate(59.095550537109375,35.5)" y="0" x="0" id="text-entity-budgets-998ee43b-d48b-5831-8eda-756ba70f3d26-attr-1-name" class="er entityLabel">id</text><rect height="23" width="22.578125" y="24" x="117.95777893066406" class="er attributeBoxOdd"/><text style="dominant-baseline: middle; font-size: 10.2px;" transform="translate(122.95777893066406,35.5)" y="0" x="0" id="text-entity-budgets-998ee43b-d48b-5831-8eda-756ba70f3d26-attr-1-comment" class="er entityLabel">🗝️</text><rect height="22" width="54.095550537109375" y="47" x="0" class="er attributeBoxEven"/><text style="dominant-baseline: middle; font-size: 10.2px;" transform="translate(5,58)" y="0" x="0" id="text-entity-budgets-998ee43b-d48b-5831-8eda-756ba70f3d26-attr-2-type" class="er entityLabel">String</text><rect height="22" width="63.86222839355469" y="47" x="54.095550537109375" class="er attributeBoxEven"/><text style="dominant-baseline: middle; font-size: 10.2px;" transform="translate(59.095550537109375,58)" y="0" x="0" id="text-entity-budgets-998ee43b-d48b-5831-8eda-756ba70f3d26-attr-2-name" class="er entityLabel">user_id</text><rect height="22" width="22.578125" y="47" x="117.95777893066406" class="er attributeBoxEven"/><text style="dominant-baseline: middle; font-size: 10.2px;" transform="translate(122.95777893066406,58)" y="0" x="0" id="text-entity-budgets-998ee43b-d48b-5831-8eda-756ba70f3d26-attr-2-comment" class="er entityLabel"/><rect height="23" width="54.095550537109375" y="69" x="0" class="er attributeBoxOdd"/><text style="dominant-baseline: middle; font-size: 10.2px;" transform="translate(5,80.5)" y="0" x="0" id="text-entity-budgets-998ee43b-d48b-5831-8eda-756ba70f3d26-attr-3-type" class="er entityLabel">String</text><rect height="23" width="63.86222839355469" y="69" x="54.095550537109375" class="er attributeBoxOdd"/><text style="dominant-baseline: middle; font-size: 10.2px;" transform="translate(59.095550537109375,80.5)" y="0" x="0" id="text-entity-budgets-998ee43b-d48b-5831-8eda-756ba70f3d26-attr-3-name" class="er entityLabel">category_id</text><rect height="23" width="22.578125" y="69" x="117.95777893066406" class="er attributeBoxOdd"/><text style="dominant-baseline: middle; font-size: 10.2px;" transform="translate(122.95777893066406,80.5)" y="0" x="0" id="text-entity-budgets-998ee43b-d48b-5831-8eda-756ba70f3d26-attr-3-comment" class="er entityLabel">❓</text><rect height="22" width="54.095550537109375" y="92" x="0" class="er attributeBoxEven"/><text style="dominant-baseline: middle; font-size: 10.2px;" transform="translate(5,103)" y="0" x="0" id="text-entity-budgets-998ee43b-d48b-5831-8eda-756ba70f3d26-attr-4-type" class="er entityLabel">String</text><rect height="22" width="63.86222839355469" y="92" x="54.095550537109375" class="er attributeBoxEven"/><text style="dominant-baseline: middle; font-size: 10.2px;" transform="translate(59.095550537109375,103)" y="0" x="0" id="text-entity-budgets-998ee43b-d48b-5831-8eda-756ba70f3d26-attr-4-name" class="er entityLabel">month</text><rect height="22" width="22.578125" y="92" x="117.95777893066406" class="er attributeBoxEven"/><text style="dominant-baseline: middle; font-size: 10.2px;" transform="translate(122.95777893066406,103)" y="0" x="0" id="text-entity-budgets-998ee43b-d48b-5831-8eda-756ba70f3d26-attr-4-comment" class="er entityLabel"/><rect height="22" width="54.095550537109375" y="114" x="0" class="er attributeBoxOdd"/><text style="dominant-baseline: middle; font-size: 10.2px;" transform="translate(5,125)" y="0" x="0" id="text-entity-budgets-998ee43b-d48b-5831-8eda-756ba70f3d26-attr-5-type" class="er entityLabel">Decimal</text><rect height="22" width="63.86222839355469" y="114" x="54.095550537109375" class="er attributeBoxOdd"/><text style="dominant-baseline: middle; font-size: 10.2px;" transform="translate(59.095550537109375,125)" y="0" x="0" id="text-entity-budgets-998ee43b-d48b-5831-8eda-756ba70f3d26-attr-5-name" class="er entityLabel">amount</text><rect height="22" width="22.578125" y="114" x="117.95777893066406" class="er attributeBoxOdd"/><text style="dominant-baseline: middle; font-size: 10.2px;" transform="translate(122.95777893066406,125)" y="0" x="0" id="text-entity-budgets-998ee43b-d48b-5831-8eda-756ba70f3d26-attr-5-comment" class="er entityLabel"/><rect height="22" width="54.095550537109375" y="136" x="0" class="er attributeBoxEven"/><text style="dominant-baseline: middle; font-size: 10.2px;" transform="translate(5,147)" y="0" x="0" id="text-entity-budgets-998ee43b-d48b-5831-8eda-756ba70f3d26-attr-6-type" class="er entityLabel">DateTime</text><rect height="22" width="63.86222839355469" y="136" x="54.095550537109375" class="er attributeBoxEven"/><text style="dominant-baseline: middle; font-size: 10.2px;" transform="translate(59.095550537109375,147)" y="0" x="0" id="text-entity-budgets-998ee43b-d48b-5831-8eda-756ba70f3d26-attr-6-name" class="er entityLabel">created_at</text><rect height="22" width="22.578125" y="136" x="117.95777893066406" class="er attributeBoxEven"/><text style="dominant-baseline: middle; font-size: 10.2px;" transform="translate(122.95777893066406,147)" y="0" x="0" id="text-entity-budgets-998ee43b-d48b-5831-8eda-756ba70f3d26-attr-6-comment" class="er entityLabel"/><rect height="22" width="54.095550537109375" y="158" x="0" class="er attributeBoxOdd"/><text style="dominant-baseline: middle; font-size: 10.2px;" transform="translate(5,169)" y="0" x="0" id="text-entity-budgets-998ee43b-d48b-5831-8eda-756ba70f3d26-attr-7-type" class="er entityLabel">DateTime</text><rect height="22" width="63.86222839355469" y="158" x="54.095550537109375" class="er attributeBoxOdd"/><text style="dominant-baseline: middle; font-size: 10.2px;" transform="translate(59.095550537109375,169)" y="0" x="0" id="text-entity-budgets-998ee43b-d48b-5831-8eda-756ba70f3d26-attr-7-name" class="er entityLabel">updated_at</text><rect height="22" width="22.578125" y="158" x="117.95777893066406" class="er attributeBoxOdd"/><text style="dominant-baseline: middle; font-size: 10.2px;" transform="translate(122.95777893066406,169)" y="0" x="0" id="text-entity-budgets-998ee43b-d48b-5831-8eda-756ba70f3d26-attr-7-comment" class="er entityLabel"/></g><rect height="14" width="42.25390625" y="194.86770629882812" x="204.52554321289062" class="er relationshipLabelBox"/><text style="text-anchor: middle; dominant-baseline: middle; font-size: 12px;" y="201.86770629882812" x="225.65249633789062" id="rel1" class="er relationshipLabel">budgets</text><rect height="14" width="55.642578125" y="320.0752258300781" x="52.838096618652344" class="er relationshipLabelBox"/><text style="text-anchor: middle; dominant-baseline: middle; font-size: 12px;" y="327.0752258300781" x="80.65938568115234" id="rel2" class="er relationshipLabel">categories</text><rect height="14" width="65.5625" y="456.5271911621094" x="-52.17325019836426" class="er relationshipLabelBox"/><text style="text-anchor: middle; dominant-baseline: middle; font-size: 12px;" y="463.5271911621094" x="-19.392000198364258" id="rel3" class="er relationshipLabel">transactions</text><rect height="14" width="58.38671875" y="833.7041625976562" x="-144.34879302978516" class="er relationshipLabelBox"/><text style="text-anchor: middle; dominant-baseline: middle; font-size: 12px;" y="840.7041625976562" x="-115.15543365478516" id="rel4" class="er relationshipLabel">enum:type</text><rect height="14" width="42.25390625" y="478.06988525390625" x="288.5614318847656" class="er relationshipLabelBox"/><text style="text-anchor: middle; dominant-baseline: middle; font-size: 12px;" y="485.06988525390625" x="309.6883850097656" id="rel5" class="er relationshipLabel">budgets</text><rect height="14" width="23.958984375" y="350.354248046875" x="438.8849792480469" class="er relationshipLabelBox"/><text style="text-anchor: middle; dominant-baseline: middle; font-size: 12px;" y="357.354248046875" x="450.8644714355469" id="rel6" class="er relationshipLabel">user</text><rect height="14" width="65.5625" y="734.930419921875" x="222.20741271972656" class="er relationshipLabelBox"/><text style="text-anchor: middle; dominant-baseline: middle; font-size: 12px;" y="741.930419921875" x="254.98866271972656" id="rel7" class="er relationshipLabel">transactions</text><rect height="14" width="58.38671875" y="1101.069580078125" x="190.92562866210938" class="er relationshipLabelBox"/><text style="text-anchor: middle; dominant-baseline: middle; font-size: 12px;" y="1108.069580078125" x="220.11898803710938" id="rel8" class="er relationshipLabel">enum:type</text><rect height="14" width="47.67578125" y="744.5621337890625" x="394.4893493652344" class="er relationshipLabelBox"/><text style="text-anchor: middle; dominant-baseline: middle; font-size: 12px;" y="751.5621337890625" x="418.3272399902344" id="rel9" class="er relationshipLabel">category</text><rect height="14" width="23.958984375" y="489.0472412109375" x="538.896484375" class="er relationshipLabelBox"/><text style="text-anchor: middle; dominant-baseline: middle; font-size: 12px;" y="496.0472412109375" x="550.8759765625" id="rel10" class="er relationshipLabel">user</text><rect height="14" width="47.67578125" y="478.31524658203125" x="198.2982177734375" class="er relationshipLabelBox"/><text style="text-anchor: middle; dominant-baseline: middle; font-size: 12px;" y="485.31524658203125" x="222.1361083984375" id="rel11" class="er relationshipLabel">category</text><rect height="14" width="23.958984375" y="198.93894958496094" x="299.79083251953125" class="er relationshipLabelBox"/><text style="text-anchor: middle; dominant-baseline: middle; font-size: 12px;" y="205.93894958496094" x="311.77032470703125" id="rel12" class="er relationshipLabel">user</text></svg>