<svg aria-roledescription="er" role="graphics-document document" viewBox="-208.81918334960938 0 1014.663330078125 948" style="max-width: 1014.66px; background-color: white;" xmlns:xlink="http://www.w3.org/1999/xlink" xmlns="http://www.w3.org/2000/svg" width="100%" id="my-svg"><style>#my-svg{font-family:"trebuchet ms",verdana,arial,sans-serif;font-size:16px;fill:#000000;}#my-svg .error-icon{fill:#552222;}#my-svg .error-text{fill:#552222;stroke:#552222;}#my-svg .edge-thickness-normal{stroke-width:2px;}#my-svg .edge-thickness-thick{stroke-width:3.5px;}#my-svg .edge-pattern-solid{stroke-dasharray:0;}#my-svg .edge-pattern-dashed{stroke-dasharray:3;}#my-svg .edge-pattern-dotted{stroke-dasharray:2;}#my-svg .marker{fill:#000000;stroke:#000000;}#my-svg .marker.cross{stroke:#000000;}#my-svg svg{font-family:"trebuchet ms",verdana,arial,sans-serif;font-size:16px;}#my-svg .entityBox{fill:#cde498;stroke:#13540c;}#my-svg .attributeBoxOdd{fill:#ffffff;stroke:#13540c;}#my-svg .attributeBoxEven{fill:#f2f2f2;stroke:#13540c;}#my-svg .relationshipLabelBox{fill:hsl(78.1578947368, 58.4615384615%, 84.5098039216%);opacity:0.7;background-color:hsl(78.1578947368, 58.4615384615%, 84.5098039216%);}#my-svg .relationshipLabelBox rect{opacity:0.5;}#my-svg .relationshipLine{stroke:#000000;}#my-svg .entityTitleText{text-anchor:middle;font-size:18px;fill:#000000;}#my-svg #MD_PARENT_START{fill:#f5f5f5!important;stroke:#000000!important;stroke-width:1;}#my-svg #MD_PARENT_END{fill:#f5f5f5!important;stroke:#000000!important;stroke-width:1;}#my-svg :root{--mermaid-font-family:"trebuchet ms",verdana,arial,sans-serif;}</style><g/><defs><marker orient="auto" markerHeight="240" markerWidth="190" refY="7" refX="0" id="MD_PARENT_START"><path d="M 18,7 L9,13 L1,7 L9,1 Z"/></marker></defs><defs><marker orient="auto" markerHeight="28" markerWidth="20" refY="7" refX="19" id="MD_PARENT_END"><path d="M 18,7 L9,13 L1,7 L9,1 Z"/></marker></defs><defs><marker orient="auto" markerHeight="18" markerWidth="18" refY="9" refX="0" id="ONLY_ONE_START"><path d="M9,0 L9,18 M15,0 L15,18" fill="none" stroke="gray"/></marker></defs><defs><marker orient="auto" markerHeight="18" markerWidth="18" refY="9" refX="18" id="ONLY_ONE_END"><path d="M3,0 L3,18 M9,0 L9,18" fill="none" stroke="gray"/></marker></defs><defs><marker orient="auto" markerHeight="18" markerWidth="30" refY="9" refX="0" id="ZERO_OR_ONE_START"><circle r="6" cy="9" cx="21" fill="white" stroke="gray"/><path d="M9,0 L9,18" fill="none" stroke="gray"/></marker></defs><defs><marker orient="auto" markerHeight="18" markerWidth="30" refY="9" refX="30" id="ZERO_OR_ONE_END"><circle r="6" cy="9" cx="9" fill="white" stroke="gray"/><path d="M21,0 L21,18" fill="none" stroke="gray"/></marker></defs><defs><marker orient="auto" markerHeight="36" markerWidth="45" refY="18" refX="18" id="ONE_OR_MORE_START"><path d="M0,18 Q 18,0 36,18 Q 18,36 0,18 M42,9 L42,27" fill="none" stroke="gray"/></marker></defs><defs><marker orient="auto" markerHeight="36" markerWidth="45" refY="18" refX="27" id="ONE_OR_MORE_END"><path d="M3,9 L3,27 M9,18 Q27,0 45,18 Q27,36 9,18" fill="none" stroke="gray"/></marker></defs><defs><marker orient="auto" markerHeight="36" markerWidth="57" refY="18" refX="18" id="ZERO_OR_MORE_START"><circle r="6" cy="18" cx="48" fill="white" stroke="gray"/><path d="M0,18 Q18,0 36,18 Q18,36 0,18" fill="none" stroke="gray"/></marker></defs><defs><marker orient="auto" markerHeight="36" markerWidth="57" refY="18" refX="39" id="ZERO_OR_MORE_END"><circle r="6" cy="18" cx="9" fill="white" stroke="gray"/><path d="M21,18 Q39,0 57,18 Q39,36 21,18" fill="none" stroke="gray"/></marker></defs><path style="stroke: gray; fill: none;" marker-start="url(#ZERO_OR_MORE_START)" marker-end="url(#ZERO_OR_MORE_END)" d="M319.137,155L313.099,163.333C307.061,171.667,294.986,188.333,292.668,205C290.349,221.667,297.789,238.333,301.509,246.667L305.228,255" class="er relationshipLine"/><path style="stroke: gray; fill: none;" marker-start="url(#ZERO_OR_MORE_START)" marker-end="url(#ZERO_OR_MORE_END)" d="M445.591,145.349L458.918,155.291C472.245,165.233,498.898,185.116,512.225,216.475C525.552,247.833,525.552,290.667,525.552,333.5C525.552,376.333,525.552,419.167,536.017,452.723C546.483,486.279,567.413,510.559,577.878,522.698L588.344,534.838" class="er relationshipLine"/><path style="stroke: gray; fill: none;" marker-start="url(#ZERO_OR_MORE_START)" marker-end="url(#ZERO_OR_MORE_END)" d="M290.497,108.8L232.126,124.834C173.754,140.867,57.011,172.933,-1.361,210.383C-59.732,247.833,-59.732,290.667,-59.732,333.5C-59.732,376.333,-59.732,419.167,-46.443,455.998C-33.155,492.83,-6.577,523.659,6.711,539.074L20,554.489" class="er relationshipLine"/><path style="stroke: gray; fill: none;" marker-start="url(#ZERO_OR_ONE_START)" marker-end="url(#ONLY_ONE_END)" d="M254.984,355.418L185.865,373.182C116.745,390.945,-21.493,426.473,-90.613,473.236C-159.732,520,-159.732,578,-159.732,636C-159.732,694,-159.732,752,-95.762,793.14C-31.791,834.279,96.149,858.558,160.119,870.698L224.09,882.838" class="er relationshipLine"/><path style="stroke: gray; fill: none;" marker-start="url(#ZERO_OR_ONE_START)" marker-end="url(#ONLY_ONE_END)" d="M366.318,255L369.083,246.667C371.848,238.333,377.379,221.667,379.09,205C380.801,188.333,378.693,171.667,377.638,163.333L376.584,155" class="er relationshipLine"/><path style="stroke: gray; fill: none;" marker-start="url(#ZERO_OR_MORE_START)" marker-end="url(#ZERO_OR_MORE_END)" d="M425.552,371.914L458.885,386.929C492.219,401.943,558.885,431.971,594.613,455.319C630.341,478.667,635.131,495.333,637.525,503.667L639.92,512" class="er relationshipLine"/><path style="stroke: gray; fill: none;" marker-start="url(#ZERO_OR_MORE_START)" marker-end="url(#ZERO_OR_MORE_END)" d="M254.984,370.03L219.198,385.358C183.412,400.687,111.84,431.343,80.077,460.672C48.314,490,56.36,518,60.383,532L64.406,546" class="er relationshipLine"/><path style="stroke: gray; fill: none;" marker-start="url(#ZERO_OR_ONE_START)" marker-end="url(#ONLY_ONE_END)" d="M675.552,760L675.552,768.333C675.552,776.667,675.552,793.333,619.915,813.569C564.278,833.805,453.004,857.611,397.367,869.514L341.73,881.416" class="er relationshipLine"/><path style="stroke: gray; fill: none;" marker-start="url(#ZERO_OR_ONE_START)" marker-end="url(#ONLY_ONE_END)" d="M711.184,512L713.579,503.667C715.973,495.333,720.763,478.667,723.157,448.917C725.552,419.167,725.552,376.333,725.552,333.5C725.552,290.667,725.552,247.833,678.892,211.081C632.232,174.329,538.911,143.658,492.251,128.322L445.591,112.987" class="er relationshipLine"/><path style="stroke: gray; fill: none;" marker-start="url(#ZERO_OR_ONE_START)" marker-end="url(#ZERO_OR_ONE_END)" d="M762.76,534.838L773.226,522.698C783.691,510.559,804.621,486.279,748.42,456.487C692.219,426.694,558.885,391.388,492.219,373.736L425.552,356.083" class="er relationshipLine"/><path style="stroke: gray; fill: none;" marker-start="url(#ZERO_OR_ONE_START)" marker-end="url(#ONLY_ONE_END)" d="M116.13,546L120.153,532C124.176,518,132.222,490,136.245,454.583C140.268,419.167,140.268,376.333,140.268,333.5C140.268,290.667,140.268,247.833,165.306,213.501C190.344,179.168,240.421,153.335,265.459,140.419L290.497,127.503" class="er relationshipLine"/><path style="stroke: gray; fill: none;" marker-start="url(#ZERO_OR_ONE_START)" marker-end="url(#ZERO_OR_ONE_END)" d="M160.536,587.094L190.491,566.245C220.447,545.396,280.357,503.698,310.313,474.516C340.268,445.333,340.268,428.667,340.268,420.333L340.268,412" class="er relationshipLine"/><g transform="translate(224.08966064453125,860 )" id="entity-TransactionType-06d6b4fc-6b94-511f-af9e-6052a9cc6367"><rect height="68" width="117.640625" y="0" x="0" class="er entityBox"/><text style="dominant-baseline: middle; text-anchor: middle; font-size: 12px;" transform="translate(58.8203125,12)" y="0" x="0" id="text-entity-TransactionType-06d6b4fc-6b94-511f-af9e-6052a9cc6367" class="er entityLabel">TransactionType</text><rect height="22" width="58.8203125" y="24" x="0" class="er attributeBoxOdd"/><text style="dominant-baseline: middle; font-size: 10.2px;" transform="translate(5,35)" y="0" x="0" id="text-entity-TransactionType-06d6b4fc-6b94-511f-af9e-6052a9cc6367-attr-1-type" class="er entityLabel">income</text><rect height="22" width="58.8203125" y="24" x="58.8203125" class="er attributeBoxOdd"/><text style="dominant-baseline: middle; font-size: 10.2px;" transform="translate(63.8203125,35)" y="0" x="0" id="text-entity-TransactionType-06d6b4fc-6b94-511f-af9e-6052a9cc6367-attr-1-name" class="er entityLabel">income</text><rect height="22" width="58.8203125" y="46" x="0" class="er attributeBoxEven"/><text style="dominant-baseline: middle; font-size: 10.2px;" transform="translate(5,57)" y="0" x="0" id="text-entity-TransactionType-06d6b4fc-6b94-511f-af9e-6052a9cc6367-attr-2-type" class="er entityLabel">expense</text><rect height="22" width="58.8203125" y="46" x="58.8203125" class="er attributeBoxEven"/><text style="dominant-baseline: middle; font-size: 10.2px;" transform="translate(63.8203125,57)" y="0" x="0" id="text-entity-TransactionType-06d6b4fc-6b94-511f-af9e-6052a9cc6367-attr-2-name" class="er entityLabel">expense</text></g><g transform="translate(290.4970512390137,20 )" id="entity-users-33ae1e26-be31-5c1d-bf65-e859e9d0308e"><rect height="135" width="155.0937957763672" y="0" x="0" class="er entityBox"/><text style="dominant-baseline: middle; text-anchor: middle; font-size: 12px;" transform="translate(77.5468978881836,12)" y="0" x="0" id="text-entity-users-33ae1e26-be31-5c1d-bf65-e859e9d0308e" class="er entityLabel">users</text><rect height="23" width="54.095550537109375" y="24" x="0" class="er attributeBoxOdd"/><text style="dominant-baseline: middle; font-size: 10.2px;" transform="translate(5,35.5)" y="0" x="0" id="text-entity-users-33ae1e26-be31-5c1d-bf65-e859e9d0308e-attr-1-type" class="er entityLabel">String</text><rect height="23" width="78.42012023925781" y="24" x="54.095550537109375" class="er attributeBoxOdd"/><text style="dominant-baseline: middle; font-size: 10.2px;" transform="translate(59.095550537109375,35.5)" y="0" x="0" id="text-entity-users-33ae1e26-be31-5c1d-bf65-e859e9d0308e-attr-1-name" class="er entityLabel">id</text><rect height="23" width="22.578125" y="24" x="132.5156707763672" class="er attributeBoxOdd"/><text style="dominant-baseline: middle; font-size: 10.2px;" transform="translate(137.5156707763672,35.5)" y="0" x="0" id="text-entity-users-33ae1e26-be31-5c1d-bf65-e859e9d0308e-attr-1-comment" class="er entityLabel">🗝️</text><rect height="22" width="54.095550537109375" y="47" x="0" class="er attributeBoxEven"/><text style="dominant-baseline: middle; font-size: 10.2px;" transform="translate(5,58)" y="0" x="0" id="text-entity-users-33ae1e26-be31-5c1d-bf65-e859e9d0308e-attr-2-type" class="er entityLabel">String</text><rect height="22" width="78.42012023925781" y="47" x="54.095550537109375" class="er attributeBoxEven"/><text style="dominant-baseline: middle; font-size: 10.2px;" transform="translate(59.095550537109375,58)" y="0" x="0" id="text-entity-users-33ae1e26-be31-5c1d-bf65-e859e9d0308e-attr-2-name" class="er entityLabel">email</text><rect height="22" width="22.578125" y="47" x="132.5156707763672" class="er attributeBoxEven"/><text style="dominant-baseline: middle; font-size: 10.2px;" transform="translate(137.5156707763672,58)" y="0" x="0" id="text-entity-users-33ae1e26-be31-5c1d-bf65-e859e9d0308e-attr-2-comment" class="er entityLabel"/><rect height="22" width="54.095550537109375" y="69" x="0" class="er attributeBoxOdd"/><text style="dominant-baseline: middle; font-size: 10.2px;" transform="translate(5,80)" y="0" x="0" id="text-entity-users-33ae1e26-be31-5c1d-bf65-e859e9d0308e-attr-3-type" class="er entityLabel">String</text><rect height="22" width="78.42012023925781" y="69" x="54.095550537109375" class="er attributeBoxOdd"/><text style="dominant-baseline: middle; font-size: 10.2px;" transform="translate(59.095550537109375,80)" y="0" x="0" id="text-entity-users-33ae1e26-be31-5c1d-bf65-e859e9d0308e-attr-3-name" class="er entityLabel">password_hash</text><rect height="22" width="22.578125" y="69" x="132.5156707763672" class="er attributeBoxOdd"/><text style="dominant-baseline: middle; font-size: 10.2px;" transform="translate(137.5156707763672,80)" y="0" x="0" id="text-entity-users-33ae1e26-be31-5c1d-bf65-e859e9d0308e-attr-3-comment" class="er entityLabel"/><rect height="22" width="54.095550537109375" y="91" x="0" class="er attributeBoxEven"/><text style="dominant-baseline: middle; font-size: 10.2px;" transform="translate(5,102)" y="0" x="0" id="text-entity-users-33ae1e26-be31-5c1d-bf65-e859e9d0308e-attr-4-type" class="er entityLabel">DateTime</text><rect height="22" width="78.42012023925781" y="91" x="54.095550537109375" class="er attributeBoxEven"/><text style="dominant-baseline: middle; font-size: 10.2px;" transform="translate(59.095550537109375,102)" y="0" x="0" id="text-entity-users-33ae1e26-be31-5c1d-bf65-e859e9d0308e-attr-4-name" class="er entityLabel">created_at</text><rect height="22" width="22.578125" y="91" x="132.5156707763672" class="er attributeBoxEven"/><text style="dominant-baseline: middle; font-size: 10.2px;" transform="translate(137.5156707763672,102)" y="0" x="0" id="text-entity-users-33ae1e26-be31-5c1d-bf65-e859e9d0308e-attr-4-comment" class="er entityLabel"/><rect height="22" width="54.095550537109375" y="113" x="0" class="er attributeBoxOdd"/><text style="dominant-baseline: middle; font-size: 10.2px;" transform="translate(5,124)" y="0" x="0" id="text-entity-users-33ae1e26-be31-5c1d-bf65-e859e9d0308e-attr-5-type" class="er entityLabel">DateTime</text><rect height="22" width="78.42012023925781" y="113" x="54.095550537109375" class="er attributeBoxOdd"/><text style="dominant-baseline: middle; font-size: 10.2px;" transform="translate(59.095550537109375,124)" y="0" x="0" id="text-entity-users-33ae1e26-be31-5c1d-bf65-e859e9d0308e-attr-5-name" class="er entityLabel">updated_at</text><rect height="22" width="22.578125" y="113" x="132.5156707763672" class="er attributeBoxOdd"/><text style="dominant-baseline: middle; font-size: 10.2px;" transform="translate(137.5156707763672,124)" y="0" x="0" id="text-entity-users-33ae1e26-be31-5c1d-bf65-e859e9d0308e-attr-5-comment" class="er entityLabel"/></g><g transform="translate(254.9839096069336,255 )" id="entity-categories-a09d50f2-ac74-5856-9390-f2cc9b07f93b"><rect height="157" width="170.56808471679688" y="0" x="0" class="er entityBox"/><text style="dominant-baseline: middle; text-anchor: middle; font-size: 12px;" transform="translate(85.28404235839844,12)" y="0" x="0" id="text-entity-categories-a09d50f2-ac74-5856-9390-f2cc9b07f93b" class="er entityLabel">categories</text><rect height="23" width="84.69442749023438" y="24" x="0" class="er attributeBoxOdd"/><text style="dominant-baseline: middle; font-size: 10.2px;" transform="translate(5,35.5)" y="0" x="0" id="text-entity-categories-a09d50f2-ac74-5856-9390-f2cc9b07f93b-attr-1-type" class="er entityLabel">String</text><rect height="23" width="63.2955322265625" y="24" x="84.69442749023438" class="er attributeBoxOdd"/><text style="dominant-baseline: middle; font-size: 10.2px;" transform="translate(89.69442749023438,35.5)" y="0" x="0" id="text-entity-categories-a09d50f2-ac74-5856-9390-f2cc9b07f93b-attr-1-name" class="er entityLabel">id</text><rect height="23" width="22.578125" y="24" x="147.98995971679688" class="er attributeBoxOdd"/><text style="dominant-baseline: middle; font-size: 10.2px;" transform="translate(152.98995971679688,35.5)" y="0" x="0" id="text-entity-categories-a09d50f2-ac74-5856-9390-f2cc9b07f93b-attr-1-comment" class="er entityLabel">🗝️</text><rect height="22" width="84.69442749023438" y="47" x="0" class="er attributeBoxEven"/><text style="dominant-baseline: middle; font-size: 10.2px;" transform="translate(5,58)" y="0" x="0" id="text-entity-categories-a09d50f2-ac74-5856-9390-f2cc9b07f93b-attr-2-type" class="er entityLabel">String</text><rect height="22" width="63.2955322265625" y="47" x="84.69442749023438" class="er attributeBoxEven"/><text style="dominant-baseline: middle; font-size: 10.2px;" transform="translate(89.69442749023438,58)" y="0" x="0" id="text-entity-categories-a09d50f2-ac74-5856-9390-f2cc9b07f93b-attr-2-name" class="er entityLabel">user_id</text><rect height="22" width="22.578125" y="47" x="147.98995971679688" class="er attributeBoxEven"/><text style="dominant-baseline: middle; font-size: 10.2px;" transform="translate(152.98995971679688,58)" y="0" x="0" id="text-entity-categories-a09d50f2-ac74-5856-9390-f2cc9b07f93b-attr-2-comment" class="er entityLabel"/><rect height="22" width="84.69442749023438" y="69" x="0" class="er attributeBoxOdd"/><text style="dominant-baseline: middle; font-size: 10.2px;" transform="translate(5,80)" y="0" x="0" id="text-entity-categories-a09d50f2-ac74-5856-9390-f2cc9b07f93b-attr-3-type" class="er entityLabel">String</text><rect height="22" width="63.2955322265625" y="69" x="84.69442749023438" class="er attributeBoxOdd"/><text style="dominant-baseline: middle; font-size: 10.2px;" transform="translate(89.69442749023438,80)" y="0" x="0" id="text-entity-categories-a09d50f2-ac74-5856-9390-f2cc9b07f93b-attr-3-name" class="er entityLabel">name</text><rect height="22" width="22.578125" y="69" x="147.98995971679688" class="er attributeBoxOdd"/><text style="dominant-baseline: middle; font-size: 10.2px;" transform="translate(152.98995971679688,80)" y="0" x="0" id="text-entity-categories-a09d50f2-ac74-5856-9390-f2cc9b07f93b-attr-3-comment" class="er entityLabel"/><rect height="22" width="84.69442749023438" y="91" x="0" class="er attributeBoxEven"/><text style="dominant-baseline: middle; font-size: 10.2px;" transform="translate(5,102)" y="0" x="0" id="text-entity-categories-a09d50f2-ac74-5856-9390-f2cc9b07f93b-attr-4-type" class="er entityLabel">TransactionType</text><rect height="22" width="63.2955322265625" y="91" x="84.69442749023438" class="er attributeBoxEven"/><text style="dominant-baseline: middle; font-size: 10.2px;" transform="translate(89.69442749023438,102)" y="0" x="0" id="text-entity-categories-a09d50f2-ac74-5856-9390-f2cc9b07f93b-attr-4-name" class="er entityLabel">type</text><rect height="22" width="22.578125" y="91" x="147.98995971679688" class="er attributeBoxEven"/><text style="dominant-baseline: middle; font-size: 10.2px;" transform="translate(152.98995971679688,102)" y="0" x="0" id="text-entity-categories-a09d50f2-ac74-5856-9390-f2cc9b07f93b-attr-4-comment" class="er entityLabel"/><rect height="22" width="84.69442749023438" y="113" x="0" class="er attributeBoxOdd"/><text style="dominant-baseline: middle; font-size: 10.2px;" transform="translate(5,124)" y="0" x="0" id="text-entity-categories-a09d50f2-ac74-5856-9390-f2cc9b07f93b-attr-5-type" class="er entityLabel">DateTime</text><rect height="22" width="63.2955322265625" y="113" x="84.69442749023438" class="er attributeBoxOdd"/><text style="dominant-baseline: middle; font-size: 10.2px;" transform="translate(89.69442749023438,124)" y="0" x="0" id="text-entity-categories-a09d50f2-ac74-5856-9390-f2cc9b07f93b-attr-5-name" class="er entityLabel">created_at</text><rect height="22" width="22.578125" y="113" x="147.98995971679688" class="er attributeBoxOdd"/><text style="dominant-baseline: middle; font-size: 10.2px;" transform="translate(152.98995971679688,124)" y="0" x="0" id="text-entity-categories-a09d50f2-ac74-5856-9390-f2cc9b07f93b-attr-5-comment" class="er entityLabel"/><rect height="22" width="84.69442749023438" y="135" x="0" class="er attributeBoxEven"/><text style="dominant-baseline: middle; font-size: 10.2px;" transform="translate(5,146)" y="0" x="0" id="text-entity-categories-a09d50f2-ac74-5856-9390-f2cc9b07f93b-attr-6-type" class="er entityLabel">DateTime</text><rect height="22" width="63.2955322265625" y="135" x="84.69442749023438" class="er attributeBoxEven"/><text style="dominant-baseline: middle; font-size: 10.2px;" transform="translate(89.69442749023438,146)" y="0" x="0" id="text-entity-categories-a09d50f2-ac74-5856-9390-f2cc9b07f93b-attr-6-name" class="er entityLabel">updated_at</text><rect height="22" width="22.578125" y="135" x="147.98995971679688" class="er attributeBoxEven"/><text style="dominant-baseline: middle; font-size: 10.2px;" transform="translate(152.98995971679688,146)" y="0" x="0" id="text-entity-categories-a09d50f2-ac74-5856-9390-f2cc9b07f93b-attr-6-comment" class="er entityLabel"/></g><g transform="translate(588.3435440063477,512 )" id="entity-transactions-a3d7e83a-4348-578f-b8ec-7c8b8dbef31a"><rect height="248" width="174.41690063476562" y="0" x="0" class="er entityBox"/><text style="dominant-baseline: middle; text-anchor: middle; font-size: 12px;" transform="translate(87.20845031738281,12)" y="0" x="0" id="text-entity-transactions-a3d7e83a-4348-578f-b8ec-7c8b8dbef31a" class="er entityLabel">transactions</text><rect height="23" width="84.69442749023438" y="24" x="0" class="er attributeBoxOdd"/><text style="dominant-baseline: middle; font-size: 10.2px;" transform="translate(5,35.5)" y="0" x="0" id="text-entity-transactions-a3d7e83a-4348-578f-b8ec-7c8b8dbef31a-attr-1-type" class="er entityLabel">String</text><rect height="23" width="67.14434814453125" y="24" x="84.69442749023438" class="er attributeBoxOdd"/><text style="dominant-baseline: middle; font-size: 10.2px;" transform="translate(89.69442749023438,35.5)" y="0" x="0" id="text-entity-transactions-a3d7e83a-4348-578f-b8ec-7c8b8dbef31a-attr-1-name" class="er entityLabel">id</text><rect height="23" width="22.578125" y="24" x="151.83877563476562" class="er attributeBoxOdd"/><text style="dominant-baseline: middle; font-size: 10.2px;" transform="translate(156.83877563476562,35.5)" y="0" x="0" id="text-entity-transactions-a3d7e83a-4348-578f-b8ec-7c8b8dbef31a-attr-1-comment" class="er entityLabel">🗝️</text><rect height="22" width="84.69442749023438" y="47" x="0" class="er attributeBoxEven"/><text style="dominant-baseline: middle; font-size: 10.2px;" transform="translate(5,58)" y="0" x="0" id="text-entity-transactions-a3d7e83a-4348-578f-b8ec-7c8b8dbef31a-attr-2-type" class="er entityLabel">String</text><rect height="22" width="67.14434814453125" y="47" x="84.69442749023438" class="er attributeBoxEven"/><text style="dominant-baseline: middle; font-size: 10.2px;" transform="translate(89.69442749023438,58)" y="0" x="0" id="text-entity-transactions-a3d7e83a-4348-578f-b8ec-7c8b8dbef31a-attr-2-name" class="er entityLabel">user_id</text><rect height="22" width="22.578125" y="47" x="151.83877563476562" class="er attributeBoxEven"/><text style="dominant-baseline: middle; font-size: 10.2px;" transform="translate(156.83877563476562,58)" y="0" x="0" id="text-entity-transactions-a3d7e83a-4348-578f-b8ec-7c8b8dbef31a-attr-2-comment" class="er entityLabel"/><rect height="23" width="84.69442749023438" y="69" x="0" class="er attributeBoxOdd"/><text style="dominant-baseline: middle; font-size: 10.2px;" transform="translate(5,80.5)" y="0" x="0" id="text-entity-transactions-a3d7e83a-4348-578f-b8ec-7c8b8dbef31a-attr-3-type" class="er entityLabel">String</text><rect height="23" width="67.14434814453125" y="69" x="84.69442749023438" class="er attributeBoxOdd"/><text style="dominant-baseline: middle; font-size: 10.2px;" transform="translate(89.69442749023438,80.5)" y="0" x="0" id="text-entity-transactions-a3d7e83a-4348-578f-b8ec-7c8b8dbef31a-attr-3-name" class="er entityLabel">category_id</text><rect height="23" width="22.578125" y="69" x="151.83877563476562" class="er attributeBoxOdd"/><text style="dominant-baseline: middle; font-size: 10.2px;" transform="translate(156.83877563476562,80.5)" y="0" x="0" id="text-entity-transactions-a3d7e83a-4348-578f-b8ec-7c8b8dbef31a-attr-3-comment" class="er entityLabel">❓</text><rect height="22" width="84.69442749023438" y="92" x="0" class="er attributeBoxEven"/><text style="dominant-baseline: middle; font-size: 10.2px;" transform="translate(5,103)" y="0" x="0" id="text-entity-transactions-a3d7e83a-4348-578f-b8ec-7c8b8dbef31a-attr-4-type" class="er entityLabel">TransactionType</text><rect height="22" width="67.14434814453125" y="92" x="84.69442749023438" class="er attributeBoxEven"/><text style="dominant-baseline: middle; font-size: 10.2px;" transform="translate(89.69442749023438,103)" y="0" x="0" id="text-entity-transactions-a3d7e83a-4348-578f-b8ec-7c8b8dbef31a-attr-4-name" class="er entityLabel">type</text><rect height="22" width="22.578125" y="92" x="151.83877563476562" class="er attributeBoxEven"/><text style="dominant-baseline: middle; font-size: 10.2px;" transform="translate(156.83877563476562,103)" y="0" x="0" id="text-entity-transactions-a3d7e83a-4348-578f-b8ec-7c8b8dbef31a-attr-4-comment" class="er entityLabel"/><rect height="22" width="84.69442749023438" y="114" x="0" class="er attributeBoxOdd"/><text style="dominant-baseline: middle; font-size: 10.2px;" transform="translate(5,125)" y="0" x="0" id="text-entity-transactions-a3d7e83a-4348-578f-b8ec-7c8b8dbef31a-attr-5-type" class="er entityLabel">Decimal</text><rect height="22" width="67.14434814453125" y="114" x="84.69442749023438" class="er attributeBoxOdd"/><text style="dominant-baseline: middle; font-size: 10.2px;" transform="translate(89.69442749023438,125)" y="0" x="0" id="text-entity-transactions-a3d7e83a-4348-578f-b8ec-7c8b8dbef31a-attr-5-name" class="er entityLabel">amount</text><rect height="22" width="22.578125" y="114" x="151.83877563476562" class="er attributeBoxOdd"/><text style="dominant-baseline: middle; font-size: 10.2px;" transform="translate(156.83877563476562,125)" y="0" x="0" id="text-entity-transactions-a3d7e83a-4348-578f-b8ec-7c8b8dbef31a-attr-5-comment" class="er entityLabel"/><rect height="22" width="84.69442749023438" y="136" x="0" class="er attributeBoxEven"/><text style="dominant-baseline: middle; font-size: 10.2px;" transform="translate(5,147)" y="0" x="0" id="text-entity-transactions-a3d7e83a-4348-578f-b8ec-7c8b8dbef31a-attr-6-type" class="er entityLabel">DateTime</text><rect height="22" width="67.14434814453125" y="136" x="84.69442749023438" class="er attributeBoxEven"/><text style="dominant-baseline: middle; font-size: 10.2px;" transform="translate(89.69442749023438,147)" y="0" x="0" id="text-entity-transactions-a3d7e83a-4348-578f-b8ec-7c8b8dbef31a-attr-6-name" class="er entityLabel">occurred_on</text><rect height="22" width="22.578125" y="136" x="151.83877563476562" class="er attributeBoxEven"/><text style="dominant-baseline: middle; font-size: 10.2px;" transform="translate(156.83877563476562,147)" y="0" x="0" id="text-entity-transactions-a3d7e83a-4348-578f-b8ec-7c8b8dbef31a-attr-6-comment" class="er entityLabel"/><rect height="23" width="84.69442749023438" y="158" x="0" class="er attributeBoxOdd"/><text style="dominant-baseline: middle; font-size: 10.2px;" transform="translate(5,169.5)" y="0" x="0" id="text-entity-transactions-a3d7e83a-4348-578f-b8ec-7c8b8dbef31a-attr-7-type" class="er entityLabel">String</text><rect height="23" width="67.14434814453125" y="158" x="84.69442749023438" class="er attributeBoxOdd"/><text style="dominant-baseline: middle; font-size: 10.2px;" transform="translate(89.69442749023438,169.5)" y="0" x="0" id="text-entity-transactions-a3d7e83a-4348-578f-b8ec-7c8b8dbef31a-attr-7-name" class="er entityLabel">note</text><rect height="23" width="22.578125" y="158" x="151.83877563476562" class="er attributeBoxOdd"/><text style="dominant-baseline: middle; font-size: 10.2px;" transform="translate(156.83877563476562,169.5)" y="0" x="0" id="text-entity-transactions-a3d7e83a-4348-578f-b8ec-7c8b8dbef31a-attr-7-comment" class="er entityLabel">❓</text><rect height="22" width="84.69442749023438" y="181" x="0" class="er attributeBoxEven"/><text style="dominant-baseline: middle; font-size: 10.2px;" transform="translate(5,192)" y="0" x="0" id="text-entity-transactions-a3d7e83a-4348-578f-b8ec-7c8b8dbef31a-attr-8-type" class="er entityLabel">DateTime</text><rect height="22" width="67.14434814453125" y="181" x="84.69442749023438" class="er attributeBoxEven"/><text style="dominant-baseline: middle; font-size: 10.2px;" transform="translate(89.69442749023438,192)" y="0" x="0" id="text-entity-transactions-a3d7e83a-4348-578f-b8ec-7c8b8dbef31a-attr-8-name" class="er entityLabel">created_at</text><rect height="22" width="22.578125" y="181" x="151.83877563476562" class="er attributeBoxEven"/><text style="dominant-baseline: middle; font-size: 10.2px;" transform="translate(156.83877563476562,192)" y="0" x="0" id="text-entity-transactions-a3d7e83a-4348-578f-b8ec-7c8b8dbef31a-attr-8-comment" class="er entityLabel"/><rect height="22" width="84.69442749023438" y="203" x="0" class="er attributeBoxOdd"/><text style="dominant-baseline: middle; font-size: 10.2px;" transform="translate(5,214)" y="0" x="0" id="text-entity-transactions-a3d7e83a-4348-578f-b8ec-7c8b8dbef31a-attr-9-type" class="er entityLabel">DateTime</text><rect height="22" width="67.14434814453125" y="203" x="84.69442749023438" class="er attributeBoxOdd"/><text style="dominant-baseline: middle; font-size: 10.2px;" transform="translate(89.69442749023438,214)" y="0" x="0" id="text-entity-transactions-a3d7e83a-4348-578f-b8ec-7c8b8dbef31a-attr-9-name" class="er entityLabel">updated_at</text><rect height="22" width="22.578125" y="203" x="151.83877563476562" class="er attributeBoxOdd"/><text style="dominant-baseline: middle; font-size: 10.2px;" transform="translate(156.83877563476562,214)" y="0" x="0" id="text-entity-transactions-a3d7e83a-4348-578f-b8ec-7c8b8dbef31a-attr-9-comment" class="er entityLabel"/><rect height="23" width="84.69442749023438" y="225" x="0" class="er attributeBoxEven"/><text style="dominant-baseline: middle; font-size: 10.2px;" transform="translate(5,236.5)" y="0" x="0" id="text-entity-transactions-a3d7e83a-4348-578f-b8ec-7c8b8dbef31a-attr-10-type" class="er entityLabel">DateTime</text><rect height="23" width="67.14434814453125" y="225" x="84.69442749023438" class="er attributeBoxEven"/><text style="dominant-baseline: middle; font-size: 10.2px;" transform="translate(89.69442749023438,236.5)" y="0" x="0" id="text-entity-transactions-a3d7e83a-4348-578f-b8ec-7c8b8dbef31a-attr-10-name" class="er entityLabel">deleted_at</text><rect height="23" width="22.578125" y="225" x="151.83877563476562" class="er attributeBoxEven"/><text style="dominant-baseline: middle; font-size: 10.2px;" transform="translate(156.83877563476562,236.5)" y="0" x="0" id="text-entity-transactions-a3d7e83a-4348-578f-b8ec-7c8b8dbef31a-attr-10-comment" class="er entityLabel">❓</text></g><g transform="translate(20,546 )" id="entity-budgets-998ee43b-d48b-5831-8eda-756ba70f3d26"><rect height="180" width="140.53590393066406" y="0" x="0" class="er entityBox"/><text style="dominant-baseline: middle; text-anchor: middle; font-size: 12px;" transform="translate(70.26795196533203,12)" y="0" x="0" id="text-entity-budgets-998ee43b-d48b-5831-8eda-756ba70f3d26" class="er entityLabel">budgets</text><rect height="23" width="54.095550537109375" y="24" x="0" class="er attributeBoxOdd"/><text style="dominant-baseline: middle; font-size: 10.2px;" transform="translate(5,35.5)" y="0" x="0" id="text-entity-budgets-998ee43b-d48b-5831-8eda-756ba70f3d26-attr-1-type" class="er entityLabel">String</text><rect height="23" width="63.86222839355469" y="24" x="54.095550537109375" class="er attributeBoxOdd"/><text style="dominant-baseline: middle; font-size: 10.2px;" transform="translate(59.095550537109375,35.5)" y="0" x="0" id="text-entity-budgets-998ee43b-d48b-5831-8eda-756ba70f3d26-attr-1-name" class="er entityLabel">id</text><rect height="23" width="22.578125" y="24" x="117.95777893066406" class="er attributeBoxOdd"/><text style="dominant-baseline: middle; font-size: 10.2px;" transform="translate(122.95777893066406,35.5)" y="0" x="0" id="text-entity-budgets-998ee43b-d48b-5831-8eda-756ba70f3d26-attr-1-comment" class="er entityLabel">🗝️</text><rect height="22" width="54.095550537109375" y="47" x="0" class="er attributeBoxEven"/><text style="dominant-baseline: middle; font-size: 10.2px;" transform="translate(5,58)" y="0" x="0" id="text-entity-budgets-998ee43b-d48b-5831-8eda-756ba70f3d26-attr-2-type" class="er entityLabel">String</text><rect height="22" width="63.86222839355469" y="47" x="54.095550537109375" class="er attributeBoxEven"/><text style="dominant-baseline: middle; font-size: 10.2px;" transform="translate(59.095550537109375,58)" y="0" x="0" id="text-entity-budgets-998ee43b-d48b-5831-8eda-756ba70f3d26-attr-2-name" class="er entityLabel">user_id</text><rect height="22" width="22.578125" y="47" x="117.95777893066406" class="er attributeBoxEven"/><text style="dominant-baseline: middle; font-size: 10.2px;" transform="translate(122.95777893066406,58)" y="0" x="0" id="text-entity-budgets-998ee43b-d48b-5831-8eda-756ba70f3d26-attr-2-comment" class="er entityLabel"/><rect height="23" width="54.095550537109375" y="69" x="0" class="er attributeBoxOdd"/><text style="dominant-baseline: middle; font-size: 10.2px;" transform="translate(5,80.5)" y="0" x="0" id="text-entity-budgets-998ee43b-d48b-5831-8eda-756ba70f3d26-attr-3-type" class="er entityLabel">String</text><rect height="23" width="63.86222839355469" y="69" x="54.095550537109375" class="er attributeBoxOdd"/><text style="dominant-baseline: middle; font-size: 10.2px;" transform="translate(59.095550537109375,80.5)" y="0" x="0" id="text-entity-budgets-998ee43b-d48b-5831-8eda-756ba70f3d26-attr-3-name" class="er entityLabel">category_id</text><rect height="23" width="22.578125" y="69" x="117.95777893066406" class="er attributeBoxOdd"/><text style="dominant-baseline: middle; font-size: 10.2px;" transform="translate(122.95777893066406,80.5)" y="0" x="0" id="text-entity-budgets-998ee43b-d48b-5831-8eda-756ba70f3d26-attr-3-comment" class="er entityLabel">❓</text><rect height="22" width="54.095550537109375" y="92" x="0" class="er attributeBoxEven"/><text style="dominant-baseline: middle; font-size: 10.2px;" transform="translate(5,103)" y="0" x="0" id="text-entity-budgets-998ee43b-d48b-5831-8eda-756ba70f3d26-attr-4-type" class="er entityLabel">String</text><rect height="22" width="63.86222839355469" y="92" x="54.095550537109375" class="er attributeBoxEven"/><text style="dominant-baseline: middle; font-size: 10.2px;" transform="translate(59.095550537109375,103)" y="0" x="0" id="text-entity-budgets-998ee43b-d48b-5831-8eda-756ba70f3d26-attr-4-name" class="er entityLabel">month</text><rect height="22" width="22.578125" y="92" x="117.95777893066406" class="er attributeBoxEven"/><text style="dominant-baseline: middle; font-size: 10.2px;" transform="translate(122.95777893066406,103)" y="0" x="0" id="text-entity-budgets-998ee43b-d48b-5831-8eda-756ba70f3d26-attr-4-comment" class="er entityLabel"/><rect height="22" width="54.095550537109375" y="114" x="0" class="er attributeBoxOdd"/><text style="dominant-baseline: middle; font-size: 10.2px;" transform="translate(5,125)" y="0" x="0" id="text-entity-budgets-998ee43b-d48b-5831-8eda-756ba70f3d26-attr-5-type" class="er entityLabel">Decimal</text><rect height="22" width="63.86222839355469" y="114" x="54.095550537109375" class="er attributeBoxOdd"/><text style="dominant-baseline: middle; font-size: 10.2px;" transform="translate(59.095550537109375,125)" y="0" x="0" id="text-entity-budgets-998ee43b-d48b-5831-8eda-756ba70f3d26-attr-5-name" class="er entityLabel">amount</text><rect height="22" width="22.578125" y="114" x="117.95777893066406" class="er attributeBoxOdd"/><text style="dominant-baseline: middle; font-size: 10.2px;" transform="translate(122.95777893066406,125)" y="0" x="0" id="text-entity-budgets-998ee43b-d48b-5831-8eda-756ba70f3d26-attr-5-comment" class="er entityLabel"/><rect height="22" width="54.095550537109375" y="136" x="0" class="er attributeBoxEven"/><text style="dominant-baseline: middle; font-size: 10.2px;" transform="translate(5,147)" y="0" x="0" id="text-entity-budgets-998ee43b-d48b-5831-8eda-756ba70f3d26-attr-6-type" class="er entityLabel">DateTime</text><rect height="22" width="63.86222839355469" y="136" x="54.095550537109375" class="er attributeBoxEven"/><text style="dominant-baseline: middle; font-size: 10.2px;" transform="translate(59.095550537109375,147)" y="0" x="0" id="text-entity-budgets-998ee43b-d48b-5831-8eda-756ba70f3d26-attr-6-name" class="er entityLabel">created_at</text><rect height="22" width="22.578125" y="136" x="117.95777893066406" class="er attributeBoxEven"/><text style="dominant-baseline: middle; font-size: 10.2px;" transform="translate(122.95777893066406,147)" y="0" x="0" id="text-entity-budgets-998ee43b-d48b-5831-8eda-756ba70f3d26-attr-6-comment" class="er entityLabel"/><rect height="22" width="54.095550537109375" y="158" x="0" class="er attributeBoxOdd"/><text style="dominant-baseline: middle; font-size: 10.2px;" transform="translate(5,169)" y="0" x="0" id="text-entity-budgets-998ee43b-d48b-5831-8eda-756ba70f3d26-attr-7-type" class="er entityLabel">DateTime</text><rect height="22" width="63.86222839355469" y="158" x="54.095550537109375" class="er attributeBoxOdd"/><text style="dominant-baseline: middle; font-size: 10.2px;" transform="translate(59.095550537109375,169)" y="0" x="0" id="text-entity-budgets-998ee43b-d48b-5831-8eda-756ba70f3d26-attr-7-name" class="er entityLabel">updated_at</text><rect height="22" width="22.578125" y="158" x="117.95777893066406" class="er attributeBoxOdd"/><text style="dominant-baseline: middle; font-size: 10.2px;" transform="translate(122.95777893066406,169)" y="0" x="0" id="text-entity-budgets-998ee43b-d48b-5831-8eda-756ba70f3d26-attr-7-comment" class="er entityLabel"/></g><rect height="14" width="55.642578125" y="195.60533142089844" x="265.2453918457031" class="er relationshipLabelBox"/><text style="text-anchor: middle; dominant-baseline: middle; font-size: 12px;" y="202.60533142089844" x="293.0666809082031" id="rel1" class="er relationshipLabel">categories</text><rect height="14" width="65.5625" y="326.9891357421875" x="492.77093505859375" class="er relationshipLabelBox"/><text style="text-anchor: middle; dominant-baseline: middle; font-size: 12px;" y="333.9891357421875" x="525.5521850585938" id="rel2" class="er relationshipLabel">transactions</text><rect height="14" width="42.25390625" y="228.00901794433594" x="-52.419795989990234" class="er relationshipLabelBox"/><text style="text-anchor: middle; dominant-baseline: middle; font-size: 12px;" y="235.00901794433594" x="-31.292842864990234" id="rel3" class="er relationshipLabel">budgets</text><rect height="14" width="58.38671875" y="608.9573364257812" x="-188.81918334960938" class="er relationshipLabelBox"/><text style="text-anchor: middle; dominant-baseline: middle; font-size: 12px;" y="615.9573364257812" x="-159.62582397460938" id="rel4" class="er relationshipLabel">enum:type</text><rect height="14" width="23.958984375" y="198.76214599609375" x="367.0295715332031" class="er relationshipLabelBox"/><text style="text-anchor: middle; dominant-baseline: middle; font-size: 12px;" y="205.76214599609375" x="379.0090637207031" id="rel5" class="er relationshipLabel">user</text><rect height="14" width="65.5625" y="420.4900817871094" x="512.1944580078125" class="er relationshipLabelBox"/><text style="text-anchor: middle; dominant-baseline: middle; font-size: 12px;" y="427.4900817871094" x="544.9757080078125" id="rel6" class="er relationshipLabel">transactions</text><rect height="14" width="42.25390625" y="424.16571044921875" x="101.80358123779297" class="er relationshipLabelBox"/><text style="text-anchor: middle; dominant-baseline: middle; font-size: 12px;" y="431.16571044921875" x="122.93053436279297" id="rel7" class="er relationshipLabel">budgets</text><rect height="14" width="58.38671875" y="834.2353515625" x="493.62908935546875" class="er relationshipLabelBox"/><text style="text-anchor: middle; dominant-baseline: middle; font-size: 12px;" y="841.2353515625" x="522.8224487304688" id="rel8" class="er relationshipLabel">enum:type</text><rect height="14" width="23.958984375" y="226.058837890625" x="689.0983276367188" class="er relationshipLabelBox"/><text style="text-anchor: middle; dominant-baseline: middle; font-size: 12px;" y="233.058837890625" x="701.0778198242188" id="rel9" class="er relationshipLabel">user</text><rect height="14" width="47.67578125" y="407.8922424316406" x="614.51708984375" class="er relationshipLabelBox"/><text style="text-anchor: middle; dominant-baseline: middle; font-size: 12px;" y="414.8922424316406" x="638.35498046875" id="rel10" class="er relationshipLabel">category</text><rect height="14" width="23.958984375" y="294.9623718261719" x="128.6634521484375" class="er relationshipLabelBox"/><text style="text-anchor: middle; dominant-baseline: middle; font-size: 12px;" y="301.9623718261719" x="140.6429443359375" id="rel11" class="er relationshipLabel">user</text><rect height="13.999969482421875" width="47.67578125" y="504.6404266357422" x="242.28921508789062" class="er relationshipLabelBox"/><text style="text-anchor: middle; dominant-baseline: middle; font-size: 12px;" y="511.6404113769531" x="266.1271057128906" id="rel12" class="er relationshipLabel">category</text></svg>