<svg aria-roledescription="er" role="graphics-document document" viewBox="-211.67799377441406 0 999.5574340820312 1228" style="max-width: 999.557px; background-color: white;" xmlns:xlink="http://www.w3.org/1999/xlink" xmlns="http://www.w3.org/2000/svg" width="100%" id="my-svg"><style>#my-svg{font-family:"trebuchet ms",verdana,arial,sans-serif;font-size:16px;fill:#000000;}#my-svg .error-icon{fill:#552222;}#my-svg .error-text{fill:#552222;stroke:#552222;}#my-svg .edge-thickness-normal{stroke-width:2px;}#my-svg .edge-thickness-thick{stroke-width:3.5px;}#my-svg .edge-pattern-solid{stroke-dasharray:0;}#my-svg .edge-pattern-dashed{stroke-dasharray:3;}#my-svg .edge-pattern-dotted{stroke-dasharray:2;}#my-svg .marker{fill:#000000;stroke:#000000;}#my-svg .marker.cross{stroke:#000000;}#my-svg svg{font-family:"trebuchet ms",verdana,arial,sans-serif;font-size:16px;}#my-svg .entityBox{fill:#cde498;stroke:#13540c;}#my-svg .attributeBoxOdd{fill:#ffffff;stroke:#13540c;}#my-svg .attributeBoxEven{fill:#f2f2f2;stroke:#13540c;}#my-svg .relationshipLabelBox{fill:hsl(78.1578947368, 58.4615384615%, 84.5098039216%);opacity:0.7;background-color:hsl(78.1578947368, 58.4615384615%, 84.5098039216%);}#my-svg .relationshipLabelBox rect{opacity:0.5;}#my-svg .relationshipLine{stroke:#000000;}#my-svg .entityTitleText{text-anchor:middle;font-size:18px;fill:#000000;}#my-svg #MD_PARENT_START{fill:#f5f5f5!important;stroke:#000000!important;stroke-width:1;}#my-svg #MD_PARENT_END{fill:#f5f5f5!important;stroke:#000000!important;stroke-width:1;}#my-svg :root{--mermaid-font-family:"trebuchet ms",verdana,arial,sans-serif;}</style><g/><defs><marker orient="auto" markerHeight="240" markerWidth="190" refY="7" refX="0" id="MD_PARENT_START"><path d="M 18,7 L9,13 L1,7 L9,1 Z"/></marker></defs><defs><marker orient="auto" markerHeight="28" markerWidth="20" refY="7" refX="19" id="MD_PARENT_END"><path d="M 18,7 L9,13 L1,7 L9,1 Z"/></marker></defs><defs><marker orient="auto" markerHeight="18" markerWidth="18" refY="9" refX="0" id="ONLY_ONE_START"><path d="M9,0 L9,18 M15,0 L15,18" fill="none" stroke="gray"/></marker></defs><defs><marker orient="auto" markerHeight="18" markerWidth="18" refY="9" refX="18" id="ONLY_ONE_END"><path d="M3,0 L3,18 M9,0 L9,18" fill="none" stroke="gray"/></marker></defs><defs><marker orient="auto" markerHeight="18" markerWidth="30" refY="9" refX="0" id="ZERO_OR_ONE_START"><circle r="6" cy="9" cx="21" fill="white" stroke="gray"/><path d="M9,0 L9,18" fill="none" stroke="gray"/></marker></defs><defs><marker orient="auto" markerHeight="18" markerWidth="30" refY="9" refX="30" id="ZERO_OR_ONE_END"><circle r="6" cy="9" cx="9" fill="white" stroke="gray"/><path d="M21,0 L21,18" fill="none" stroke="gray"/></marker></defs><defs><marker orient="auto" markerHeight="36" markerWidth="45" refY="18" refX="18" id="ONE_OR_MORE_START"><path d="M0,18 Q 18,0 36,18 Q 18,36 0,18 M42,9 L42,27" fill="none" stroke="gray"/></marker></defs><defs><marker orient="auto" markerHeight="36" markerWidth="45" refY="18" refX="27" id="ONE_OR_MORE_END"><path d="M3,9 L3,27 M9,18 Q27,0 45,18 Q27,36 9,18" fill="none" stroke="gray"/></marker></defs><defs><marker orient="auto" markerHeight="36" markerWidth="57" refY="18" refX="18" id="ZERO_OR_MORE_START"><circle r="6" cy="18" cx="48" fill="white" stroke="gray"/><path d="M0,18 Q18,0 36,18 Q18,36 0,18" fill="none" stroke="gray"/></marker></defs><defs><marker orient="auto" markerHeight="36" markerWidth="57" refY="18" refX="39" id="ZERO_OR_MORE_END"><circle r="6" cy="18" cx="9" fill="white" stroke="gray"/><path d="M21,18 Q39,0 57,18 Q39,36 21,18" fill="none" stroke="gray"/></marker></defs><path style="stroke: gray; fill: none;" marker-start="url(#ZERO_OR_MORE_START)" marker-end="url(#ZERO_OR_MORE_END)" d="M381.458,155L387.898,163.333C394.338,171.667,407.219,188.333,416.635,205C426.052,221.667,432.004,238.333,434.98,246.667L437.956,255" class="er relationshipLine"/><path style="stroke: gray; fill: none;" marker-start="url(#ZERO_OR_MORE_START)" marker-end="url(#ZERO_OR_MORE_END)" d="M303.828,155L300.684,163.333C297.54,171.667,291.253,188.333,288.109,220C284.965,251.667,284.965,298.333,284.965,345C284.965,391.667,284.965,438.333,301.366,473.05C317.767,507.767,350.569,530.535,366.969,541.918L383.37,553.302" class="er relationshipLine"/><path style="stroke: gray; fill: none;" marker-start="url(#ZERO_OR_MORE_START)" marker-end="url(#ZERO_OR_MORE_END)" d="M251.745,119.737L217.561,133.948C183.378,148.158,115.011,176.579,84.488,201.04C53.965,225.5,61.286,246,64.947,256.25L68.608,266.5" class="er relationshipLine"/><path style="stroke: gray; fill: none;" marker-start="url(#ZERO_OR_MORE_START)" marker-end="url(#ZERO_OR_MORE_END)" d="M251.745,109.145L194.508,125.121C137.271,141.096,22.796,173.048,-34.441,212.357C-91.678,251.667,-91.678,298.333,-91.678,345C-91.678,391.667,-91.678,438.333,-91.678,483.083C-91.678,527.833,-91.678,570.667,-91.678,613.5C-91.678,656.333,-91.678,699.167,-12.824,745.007C66.03,790.847,223.738,839.694,302.592,864.118L381.446,888.541" class="er relationshipLine"/><path style="stroke: gray; fill: none;" marker-start="url(#ZERO_OR_ONE_START)" marker-end="url(#ONLY_ONE_END)" d="M383.37,630.341L287.529,648.95C191.687,667.56,0.005,704.78,-95.837,752.39C-191.678,800,-191.678,858,-191.678,916C-191.678,974,-191.678,1032,-145.393,1072.492C-99.107,1112.984,-6.536,1135.968,39.75,1147.46L86.035,1158.952" class="er relationshipLine"/><path style="stroke: gray; fill: none;" marker-start="url(#ZERO_OR_MORE_START)" marker-end="url(#ZERO_OR_MORE_END)" d="M500.644,535L503.886,526.667C507.129,518.333,513.614,501.667,513.88,485C514.147,468.333,508.194,451.667,505.218,443.333L502.242,435" class="er relationshipLine"/><path style="stroke: gray; fill: none;" marker-start="url(#ZERO_OR_ONE_START)" marker-end="url(#ONLY_ONE_END)" d="M556.828,553.302L573.229,541.918C589.63,530.535,622.431,507.767,638.832,473.05C655.233,438.333,655.233,391.667,655.233,345C655.233,298.333,655.233,251.667,613.834,213.409C572.435,175.152,489.637,145.303,448.238,130.379L406.839,115.455" class="er relationshipLine"/><path style="stroke: gray; fill: none;" marker-start="url(#ZERO_OR_MORE_START)" marker-end="url(#ZERO_OR_MORE_END)" d="M436.089,692L432.478,700.333C428.868,708.667,421.647,725.333,420.703,742C419.759,758.667,425.091,775.333,427.758,783.667L430.424,792" class="er relationshipLine"/><path style="stroke: gray; fill: none;" marker-start="url(#ZERO_OR_ONE_START)" marker-end="url(#ONLY_ONE_END)" d="M470.099,1040L470.099,1048.333C470.099,1056.667,470.099,1073.333,426.291,1093.043C382.483,1112.753,294.868,1135.507,251.06,1146.884L207.252,1158.26" class="er relationshipLine"/><path style="stroke: gray; fill: none;" marker-start="url(#ZERO_OR_ONE_START)" marker-end="url(#ZERO_OR_ONE_END)" d="M558.753,832.678L574.833,817.565C590.913,802.452,623.073,772.226,622.752,745.729C622.431,719.233,589.63,696.465,573.229,685.082L556.828,673.698" class="er relationshipLine"/><path style="stroke: gray; fill: none;" marker-start="url(#ZERO_OR_ONE_START)" marker-end="url(#ONLY_ONE_END)" d="M558.753,861.9L591.499,841.917C624.246,821.934,689.74,781.967,722.486,740.567C755.233,699.167,755.233,656.333,755.233,613.5C755.233,570.667,755.233,527.833,755.233,483.083C755.233,438.333,755.233,391.667,755.233,345C755.233,298.333,755.233,251.667,697.167,212.315C639.102,172.964,522.97,140.928,464.905,124.91L406.839,108.892" class="er relationshipLine"/><path style="stroke: gray; fill: none;" marker-start="url(#ZERO_OR_ONE_START)" marker-end="url(#ZERO_OR_ONE_END)" d="M437.956,435L434.98,443.333C432.004,451.667,426.052,468.333,426.318,485C426.584,501.667,433.069,518.333,436.312,526.667L439.554,535" class="er relationshipLine"/><path style="stroke: gray; fill: none;" marker-start="url(#ZERO_OR_ONE_START)" marker-end="url(#ONLY_ONE_END)" d="M502.242,255L505.218,246.667C508.194,238.333,514.147,221.667,498.246,201.709C482.346,181.751,444.592,158.502,425.716,146.878L406.839,135.254" class="er relationshipLine"/><path style="stroke: gray; fill: none;" marker-start="url(#ZERO_OR_ONE_START)" marker-end="url(#ONLY_ONE_END)" d="M124.679,266.5L128.34,256.25C132.001,246,139.322,225.5,160.5,203.981C181.677,182.462,216.711,159.925,234.228,148.656L251.745,137.387" class="er relationshipLine"/><g transform="translate(86.03507995605469,1140 )" id="entity-transactiontype-3635e027-fcff-56db-8f28-b74f9f7607b6"><rect height="68" width="121.216796875" y="0" x="0" class="er entityBox"/><text style="dominant-baseline: middle; text-anchor: middle; font-size: 12px;" transform="translate(60.6083984375,12)" y="0" x="0" id="text-entity-transactiontype-3635e027-fcff-56db-8f28-b74f9f7607b6" class="er entityLabel">transaction_type</text><rect height="22" width="60.6083984375" y="24" x="0" class="er attributeBoxOdd"/><text style="dominant-baseline: middle; font-size: 10.2px;" transform="translate(5,35)" y="0" x="0" id="text-entity-transactiontype-3635e027-fcff-56db-8f28-b74f9f7607b6-attr-1-type" class="er entityLabel">income</text><rect height="22" width="60.6083984375" y="24" x="60.6083984375" class="er attributeBoxOdd"/><text style="dominant-baseline: middle; font-size: 10.2px;" transform="translate(65.6083984375,35)" y="0" x="0" id="text-entity-transactiontype-3635e027-fcff-56db-8f28-b74f9f7607b6-attr-1-name" class="er entityLabel">income</text><rect height="22" width="60.6083984375" y="46" x="0" class="er attributeBoxEven"/><text style="dominant-baseline: middle; font-size: 10.2px;" transform="translate(5,57)" y="0" x="0" id="text-entity-transactiontype-3635e027-fcff-56db-8f28-b74f9f7607b6-attr-2-type" class="er entityLabel">expense</text><rect height="22" width="60.6083984375" y="46" x="60.6083984375" class="er attributeBoxEven"/><text style="dominant-baseline: middle; font-size: 10.2px;" transform="translate(65.6083984375,57)" y="0" x="0" id="text-entity-transactiontype-3635e027-fcff-56db-8f28-b74f9f7607b6-attr-2-name" class="er entityLabel">expense</text></g><g transform="translate(251.74497604370117,20 )" id="entity-users-33ae1e26-be31-5c1d-bf65-e859e9d0308e"><rect height="135" width="155.0937957763672" y="0" x="0" class="er entityBox"/><text style="dominant-baseline: middle; text-anchor: middle; font-size: 12px;" transform="translate(77.5468978881836,12)" y="0" x="0" id="text-entity-users-33ae1e26-be31-5c1d-bf65-e859e9d0308e" class="er entityLabel">users</text><rect height="23" width="54.095550537109375" y="24" x="0" class="er attributeBoxOdd"/><text style="dominant-baseline: middle; font-size: 10.2px;" transform="translate(5,35.5)" y="0" x="0" id="text-entity-users-33ae1e26-be31-5c1d-bf65-e859e9d0308e-attr-1-type" class="er entityLabel">String</text><rect height="23" width="78.42012023925781" y="24" x="54.095550537109375" class="er attributeBoxOdd"/><text style="dominant-baseline: middle; font-size: 10.2px;" transform="translate(59.095550537109375,35.5)" y="0" x="0" id="text-entity-users-33ae1e26-be31-5c1d-bf65-e859e9d0308e-attr-1-name" class="er entityLabel">id</text><rect height="23" width="22.578125" y="24" x="132.5156707763672" class="er attributeBoxOdd"/><text style="dominant-baseline: middle; font-size: 10.2px;" transform="translate(137.5156707763672,35.5)" y="0" x="0" id="text-entity-users-33ae1e26-be31-5c1d-bf65-e859e9d0308e-attr-1-comment" class="er entityLabel">🗝️</text><rect height="22" width="54.095550537109375" y="47" x="0" class="er attributeBoxEven"/><text style="dominant-baseline: middle; font-size: 10.2px;" transform="translate(5,58)" y="0" x="0" id="text-entity-users-33ae1e26-be31-5c1d-bf65-e859e9d0308e-attr-2-type" class="er entityLabel">String</text><rect height="22" width="78.42012023925781" y="47" x="54.095550537109375" class="er attributeBoxEven"/><text style="dominant-baseline: middle; font-size: 10.2px;" transform="translate(59.095550537109375,58)" y="0" x="0" id="text-entity-users-33ae1e26-be31-5c1d-bf65-e859e9d0308e-attr-2-name" class="er entityLabel">email</text><rect height="22" width="22.578125" y="47" x="132.5156707763672" class="er attributeBoxEven"/><text style="dominant-baseline: middle; font-size: 10.2px;" transform="translate(137.5156707763672,58)" y="0" x="0" id="text-entity-users-33ae1e26-be31-5c1d-bf65-e859e9d0308e-attr-2-comment" class="er entityLabel"/><rect height="22" width="54.095550537109375" y="69" x="0" class="er attributeBoxOdd"/><text style="dominant-baseline: middle; font-size: 10.2px;" transform="translate(5,80)" y="0" x="0" id="text-entity-users-33ae1e26-be31-5c1d-bf65-e859e9d0308e-attr-3-type" class="er entityLabel">String</text><rect height="22" width="78.42012023925781" y="69" x="54.095550537109375" class="er attributeBoxOdd"/><text style="dominant-baseline: middle; font-size: 10.2px;" transform="translate(59.095550537109375,80)" y="0" x="0" id="text-entity-users-33ae1e26-be31-5c1d-bf65-e859e9d0308e-attr-3-name" class="er entityLabel">password_hash</text><rect height="22" width="22.578125" y="69" x="132.5156707763672" class="er attributeBoxOdd"/><text style="dominant-baseline: middle; font-size: 10.2px;" transform="translate(137.5156707763672,80)" y="0" x="0" id="text-entity-users-33ae1e26-be31-5c1d-bf65-e859e9d0308e-attr-3-comment" class="er entityLabel"/><rect height="22" width="54.095550537109375" y="91" x="0" class="er attributeBoxEven"/><text style="dominant-baseline: middle; font-size: 10.2px;" transform="translate(5,102)" y="0" x="0" id="text-entity-users-33ae1e26-be31-5c1d-bf65-e859e9d0308e-attr-4-type" class="er entityLabel">DateTime</text><rect height="22" width="78.42012023925781" y="91" x="54.095550537109375" class="er attributeBoxEven"/><text style="dominant-baseline: middle; font-size: 10.2px;" transform="translate(59.095550537109375,102)" y="0" x="0" id="text-entity-users-33ae1e26-be31-5c1d-bf65-e859e9d0308e-attr-4-name" class="er entityLabel">created_at</text><rect height="22" width="22.578125" y="91" x="132.5156707763672" class="er attributeBoxEven"/><text style="dominant-baseline: middle; font-size: 10.2px;" transform="translate(137.5156707763672,102)" y="0" x="0" id="text-entity-users-33ae1e26-be31-5c1d-bf65-e859e9d0308e-attr-4-comment" class="er entityLabel"/><rect height="22" width="54.095550537109375" y="113" x="0" class="er attributeBoxOdd"/><text style="dominant-baseline: middle; font-size: 10.2px;" transform="translate(5,124)" y="0" x="0" id="text-entity-users-33ae1e26-be31-5c1d-bf65-e859e9d0308e-attr-5-type" class="er entityLabel">DateTime</text><rect height="22" width="78.42012023925781" y="113" x="54.095550537109375" class="er attributeBoxOdd"/><text style="dominant-baseline: middle; font-size: 10.2px;" transform="translate(59.095550537109375,124)" y="0" x="0" id="text-entity-users-33ae1e26-be31-5c1d-bf65-e859e9d0308e-attr-5-name" class="er entityLabel">updated_at</text><rect height="22" width="22.578125" y="113" x="132.5156707763672" class="er attributeBoxOdd"/><text style="dominant-baseline: middle; font-size: 10.2px;" transform="translate(137.5156707763672,124)" y="0" x="0" id="text-entity-users-33ae1e26-be31-5c1d-bf65-e859e9d0308e-attr-5-comment" class="er entityLabel"/></g><g transform="translate(383.37028884887695,535 )" id="entity-categories-a09d50f2-ac74-5856-9390-f2cc9b07f93b"><rect height="157" width="173.4578094482422" y="0" x="0" class="er entityBox"/><text style="dominant-baseline: middle; text-anchor: middle; font-size: 12px;" transform="translate(86.7289047241211,12)" y="0" x="0" id="text-entity-categories-a09d50f2-ac74-5856-9390-f2cc9b07f93b" class="er entityLabel">categories</text><rect height="23" width="87.58415222167969" y="24" x="0" class="er attributeBoxOdd"/><text style="dominant-baseline: middle; font-size: 10.2px;" transform="translate(5,35.5)" y="0" x="0" id="text-entity-categories-a09d50f2-ac74-5856-9390-f2cc9b07f93b-attr-1-type" class="er entityLabel">String</text><rect height="23" width="63.2955322265625" y="24" x="87.58415222167969" class="er attributeBoxOdd"/><text style="dominant-baseline: middle; font-size: 10.2px;" transform="translate(92.58415222167969,35.5)" y="0" x="0" id="text-entity-categories-a09d50f2-ac74-5856-9390-f2cc9b07f93b-attr-1-name" class="er entityLabel">id</text><rect height="23" width="22.578125" y="24" x="150.8796844482422" class="er attributeBoxOdd"/><text style="dominant-baseline: middle; font-size: 10.2px;" transform="translate(155.8796844482422,35.5)" y="0" x="0" id="text-entity-categories-a09d50f2-ac74-5856-9390-f2cc9b07f93b-attr-1-comment" class="er entityLabel">🗝️</text><rect height="22" width="87.58415222167969" y="47" x="0" class="er attributeBoxEven"/><text style="dominant-baseline: middle; font-size: 10.2px;" transform="translate(5,58)" y="0" x="0" id="text-entity-categories-a09d50f2-ac74-5856-9390-f2cc9b07f93b-attr-2-type" class="er entityLabel">String</text><rect height="22" width="63.2955322265625" y="47" x="87.58415222167969" class="er attributeBoxEven"/><text style="dominant-baseline: middle; font-size: 10.2px;" transform="translate(92.58415222167969,58)" y="0" x="0" id="text-entity-categories-a09d50f2-ac74-5856-9390-f2cc9b07f93b-attr-2-name" class="er entityLabel">user_id</text><rect height="22" width="22.578125" y="47" x="150.8796844482422" class="er attributeBoxEven"/><text style="dominant-baseline: middle; font-size: 10.2px;" transform="translate(155.8796844482422,58)" y="0" x="0" id="text-entity-categories-a09d50f2-ac74-5856-9390-f2cc9b07f93b-attr-2-comment" class="er entityLabel"/><rect height="22" width="87.58415222167969" y="69" x="0" class="er attributeBoxOdd"/><text style="dominant-baseline: middle; font-size: 10.2px;" transform="translate(5,80)" y="0" x="0" id="text-entity-categories-a09d50f2-ac74-5856-9390-f2cc9b07f93b-attr-3-type" class="er entityLabel">String</text><rect height="22" width="63.2955322265625" y="69" x="87.58415222167969" class="er attributeBoxOdd"/><text style="dominant-baseline: middle; font-size: 10.2px;" transform="translate(92.58415222167969,80)" y="0" x="0" id="text-entity-categories-a09d50f2-ac74-5856-9390-f2cc9b07f93b-attr-3-name" class="er entityLabel">name</text><rect height="22" width="22.578125" y="69" x="150.8796844482422" class="er attributeBoxOdd"/><text style="dominant-baseline: middle; font-size: 10.2px;" transform="translate(155.8796844482422,80)" y="0" x="0" id="text-entity-categories-a09d50f2-ac74-5856-9390-f2cc9b07f93b-attr-3-comment" class="er entityLabel"/><rect height="22" width="87.58415222167969" y="91" x="0" class="er attributeBoxEven"/><text style="dominant-baseline: middle; font-size: 10.2px;" transform="translate(5,102)" y="0" x="0" id="text-entity-categories-a09d50f2-ac74-5856-9390-f2cc9b07f93b-attr-4-type" class="er entityLabel">transaction_type</text><rect height="22" width="63.2955322265625" y="91" x="87.58415222167969" class="er attributeBoxEven"/><text style="dominant-baseline: middle; font-size: 10.2px;" transform="translate(92.58415222167969,102)" y="0" x="0" id="text-entity-categories-a09d50f2-ac74-5856-9390-f2cc9b07f93b-attr-4-name" class="er entityLabel">type</text><rect height="22" width="22.578125" y="91" x="150.8796844482422" class="er attributeBoxEven"/><text style="dominant-baseline: middle; font-size: 10.2px;" transform="translate(155.8796844482422,102)" y="0" x="0" id="text-entity-categories-a09d50f2-ac74-5856-9390-f2cc9b07f93b-attr-4-comment" class="er entityLabel"/><rect height="22" width="87.58415222167969" y="113" x="0" class="er attributeBoxOdd"/><text style="dominant-baseline: middle; font-size: 10.2px;" transform="translate(5,124)" y="0" x="0" id="text-entity-categories-a09d50f2-ac74-5856-9390-f2cc9b07f93b-attr-5-type" class="er entityLabel">DateTime</text><rect height="22" width="63.2955322265625" y="113" x="87.58415222167969" class="er attributeBoxOdd"/><text style="dominant-baseline: middle; font-size: 10.2px;" transform="translate(92.58415222167969,124)" y="0" x="0" id="text-entity-categories-a09d50f2-ac74-5856-9390-f2cc9b07f93b-attr-5-name" class="er entityLabel">created_at</text><rect height="22" width="22.578125" y="113" x="150.8796844482422" class="er attributeBoxOdd"/><text style="dominant-baseline: middle; font-size: 10.2px;" transform="translate(155.8796844482422,124)" y="0" x="0" id="text-entity-categories-a09d50f2-ac74-5856-9390-f2cc9b07f93b-attr-5-comment" class="er entityLabel"/><rect height="22" width="87.58415222167969" y="135" x="0" class="er attributeBoxEven"/><text style="dominant-baseline: middle; font-size: 10.2px;" transform="translate(5,146)" y="0" x="0" id="text-entity-categories-a09d50f2-ac74-5856-9390-f2cc9b07f93b-attr-6-type" class="er entityLabel">DateTime</text><rect height="22" width="63.2955322265625" y="135" x="87.58415222167969" class="er attributeBoxEven"/><text style="dominant-baseline: middle; font-size: 10.2px;" transform="translate(92.58415222167969,146)" y="0" x="0" id="text-entity-categories-a09d50f2-ac74-5856-9390-f2cc9b07f93b-attr-6-name" class="er entityLabel">updated_at</text><rect height="22" width="22.578125" y="135" x="150.8796844482422" class="er attributeBoxEven"/><text style="dominant-baseline: middle; font-size: 10.2px;" transform="translate(155.8796844482422,146)" y="0" x="0" id="text-entity-categories-a09d50f2-ac74-5856-9390-f2cc9b07f93b-attr-6-comment" class="er entityLabel"/></g><g transform="translate(381.4458808898926,792 )" id="entity-transactions-a3d7e83a-4348-578f-b8ec-7c8b8dbef31a"><rect height="248" width="177.30662536621094" y="0" x="0" class="er entityBox"/><text style="dominant-baseline: middle; text-anchor: middle; font-size: 12px;" transform="translate(88.65331268310547,12)" y="0" x="0" id="text-entity-transactions-a3d7e83a-4348-578f-b8ec-7c8b8dbef31a" class="er entityLabel">transactions</text><rect height="23" width="87.58415222167969" y="24" x="0" class="er attributeBoxOdd"/><text style="dominant-baseline: middle; font-size: 10.2px;" transform="translate(5,35.5)" y="0" x="0" id="text-entity-transactions-a3d7e83a-4348-578f-b8ec-7c8b8dbef31a-attr-1-type" class="er entityLabel">String</text><rect height="23" width="67.14434814453125" y="24" x="87.58415222167969" class="er attributeBoxOdd"/><text style="dominant-baseline: middle; font-size: 10.2px;" transform="translate(92.58415222167969,35.5)" y="0" x="0" id="text-entity-transactions-a3d7e83a-4348-578f-b8ec-7c8b8dbef31a-attr-1-name" class="er entityLabel">id</text><rect height="23" width="22.578125" y="24" x="154.72850036621094" class="er attributeBoxOdd"/><text style="dominant-baseline: middle; font-size: 10.2px;" transform="translate(159.72850036621094,35.5)" y="0" x="0" id="text-entity-transactions-a3d7e83a-4348-578f-b8ec-7c8b8dbef31a-attr-1-comment" class="er entityLabel">🗝️</text><rect height="22" width="87.58415222167969" y="47" x="0" class="er attributeBoxEven"/><text style="dominant-baseline: middle; font-size: 10.2px;" transform="translate(5,58)" y="0" x="0" id="text-entity-transactions-a3d7e83a-4348-578f-b8ec-7c8b8dbef31a-attr-2-type" class="er entityLabel">String</text><rect height="22" width="67.14434814453125" y="47" x="87.58415222167969" class="er attributeBoxEven"/><text style="dominant-baseline: middle; font-size: 10.2px;" transform="translate(92.58415222167969,58)" y="0" x="0" id="text-entity-transactions-a3d7e83a-4348-578f-b8ec-7c8b8dbef31a-attr-2-name" class="er entityLabel">user_id</text><rect height="22" width="22.578125" y="47" x="154.72850036621094" class="er attributeBoxEven"/><text style="dominant-baseline: middle; font-size: 10.2px;" transform="translate(159.72850036621094,58)" y="0" x="0" id="text-entity-transactions-a3d7e83a-4348-578f-b8ec-7c8b8dbef31a-attr-2-comment" class="er entityLabel"/><rect height="23" width="87.58415222167969" y="69" x="0" class="er attributeBoxOdd"/><text style="dominant-baseline: middle; font-size: 10.2px;" transform="translate(5,80.5)" y="0" x="0" id="text-entity-transactions-a3d7e83a-4348-578f-b8ec-7c8b8dbef31a-attr-3-type" class="er entityLabel">String</text><rect height="23" width="67.14434814453125" y="69" x="87.58415222167969" class="er attributeBoxOdd"/><text style="dominant-baseline: middle; font-size: 10.2px;" transform="translate(92.58415222167969,80.5)" y="0" x="0" id="text-entity-transactions-a3d7e83a-4348-578f-b8ec-7c8b8dbef31a-attr-3-name" class="er entityLabel">category_id</text><rect height="23" width="22.578125" y="69" x="154.72850036621094" class="er attributeBoxOdd"/><text style="dominant-baseline: middle; font-size: 10.2px;" transform="translate(159.72850036621094,80.5)" y="0" x="0" id="text-entity-transactions-a3d7e83a-4348-578f-b8ec-7c8b8dbef31a-attr-3-comment" class="er entityLabel">❓</text><rect height="22" width="87.58415222167969" y="92" x="0" class="er attributeBoxEven"/><text style="dominant-baseline: middle; font-size: 10.2px;" transform="translate(5,103)" y="0" x="0" id="text-entity-transactions-a3d7e83a-4348-578f-b8ec-7c8b8dbef31a-attr-4-type" class="er entityLabel">transaction_type</text><rect height="22" width="67.14434814453125" y="92" x="87.58415222167969" class="er attributeBoxEven"/><text style="dominant-baseline: middle; font-size: 10.2px;" transform="translate(92.58415222167969,103)" y="0" x="0" id="text-entity-transactions-a3d7e83a-4348-578f-b8ec-7c8b8dbef31a-attr-4-name" class="er entityLabel">type</text><rect height="22" width="22.578125" y="92" x="154.72850036621094" class="er attributeBoxEven"/><text style="dominant-baseline: middle; font-size: 10.2px;" transform="translate(159.72850036621094,103)" y="0" x="0" id="text-entity-transactions-a3d7e83a-4348-578f-b8ec-7c8b8dbef31a-attr-4-comment" class="er entityLabel"/><rect height="22" width="87.58415222167969" y="114" x="0" class="er attributeBoxOdd"/><text style="dominant-baseline: middle; font-size: 10.2px;" transform="translate(5,125)" y="0" x="0" id="text-entity-transactions-a3d7e83a-4348-578f-b8ec-7c8b8dbef31a-attr-5-type" class="er entityLabel">Decimal</text><rect height="22" width="67.14434814453125" y="114" x="87.58415222167969" class="er attributeBoxOdd"/><text style="dominant-baseline: middle; font-size: 10.2px;" transform="translate(92.58415222167969,125)" y="0" x="0" id="text-entity-transactions-a3d7e83a-4348-578f-b8ec-7c8b8dbef31a-attr-5-name" class="er entityLabel">amount</text><rect height="22" width="22.578125" y="114" x="154.72850036621094" class="er attributeBoxOdd"/><text style="dominant-baseline: middle; font-size: 10.2px;" transform="translate(159.72850036621094,125)" y="0" x="0" id="text-entity-transactions-a3d7e83a-4348-578f-b8ec-7c8b8dbef31a-attr-5-comment" class="er entityLabel"/><rect height="22" width="87.58415222167969" y="136" x="0" class="er attributeBoxEven"/><text style="dominant-baseline: middle; font-size: 10.2px;" transform="translate(5,147)" y="0" x="0" id="text-entity-transactions-a3d7e83a-4348-578f-b8ec-7c8b8dbef31a-attr-6-type" class="er entityLabel">DateTime</text><rect height="22" width="67.14434814453125" y="136" x="87.58415222167969" class="er attributeBoxEven"/><text style="dominant-baseline: middle; font-size: 10.2px;" transform="translate(92.58415222167969,147)" y="0" x="0" id="text-entity-transactions-a3d7e83a-4348-578f-b8ec-7c8b8dbef31a-attr-6-name" class="er entityLabel">occurred_on</text><rect height="22" width="22.578125" y="136" x="154.72850036621094" class="er attributeBoxEven"/><text style="dominant-baseline: middle; font-size: 10.2px;" transform="translate(159.72850036621094,147)" y="0" x="0" id="text-entity-transactions-a3d7e83a-4348-578f-b8ec-7c8b8dbef31a-attr-6-comment" class="er entityLabel"/><rect height="23" width="87.58415222167969" y="158" x="0" class="er attributeBoxOdd"/><text style="dominant-baseline: middle; font-size: 10.2px;" transform="translate(5,169.5)" y="0" x="0" id="text-entity-transactions-a3d7e83a-4348-578f-b8ec-7c8b8dbef31a-attr-7-type" class="er entityLabel">String</text><rect height="23" width="67.14434814453125" y="158" x="87.58415222167969" class="er attributeBoxOdd"/><text style="dominant-baseline: middle; font-size: 10.2px;" transform="translate(92.58415222167969,169.5)" y="0" x="0" id="text-entity-transactions-a3d7e83a-4348-578f-b8ec-7c8b8dbef31a-attr-7-name" class="er entityLabel">note</text><rect height="23" width="22.578125" y="158" x="154.72850036621094" class="er attributeBoxOdd"/><text style="dominant-baseline: middle; font-size: 10.2px;" transform="translate(159.72850036621094,169.5)" y="0" x="0" id="text-entity-transactions-a3d7e83a-4348-578f-b8ec-7c8b8dbef31a-attr-7-comment" class="er entityLabel">❓</text><rect height="22" width="87.58415222167969" y="181" x="0" class="er attributeBoxEven"/><text style="dominant-baseline: middle; font-size: 10.2px;" transform="translate(5,192)" y="0" x="0" id="text-entity-transactions-a3d7e83a-4348-578f-b8ec-7c8b8dbef31a-attr-8-type" class="er entityLabel">DateTime</text><rect height="22" width="67.14434814453125" y="181" x="87.58415222167969" class="er attributeBoxEven"/><text style="dominant-baseline: middle; font-size: 10.2px;" transform="translate(92.58415222167969,192)" y="0" x="0" id="text-entity-transactions-a3d7e83a-4348-578f-b8ec-7c8b8dbef31a-attr-8-name" class="er entityLabel">created_at</text><rect height="22" width="22.578125" y="181" x="154.72850036621094" class="er attributeBoxEven"/><text style="dominant-baseline: middle; font-size: 10.2px;" transform="translate(159.72850036621094,192)" y="0" x="0" id="text-entity-transactions-a3d7e83a-4348-578f-b8ec-7c8b8dbef31a-attr-8-comment" class="er entityLabel"/><rect height="22" width="87.58415222167969" y="203" x="0" class="er attributeBoxOdd"/><text style="dominant-baseline: middle; font-size: 10.2px;" transform="translate(5,214)" y="0" x="0" id="text-entity-transactions-a3d7e83a-4348-578f-b8ec-7c8b8dbef31a-attr-9-type" class="er entityLabel">DateTime</text><rect height="22" width="67.14434814453125" y="203" x="87.58415222167969" class="er attributeBoxOdd"/><text style="dominant-baseline: middle; font-size: 10.2px;" transform="translate(92.58415222167969,214)" y="0" x="0" id="text-entity-transactions-a3d7e83a-4348-578f-b8ec-7c8b8dbef31a-attr-9-name" class="er entityLabel">updated_at</text><rect height="22" width="22.578125" y="203" x="154.72850036621094" class="er attributeBoxOdd"/><text style="dominant-baseline: middle; font-size: 10.2px;" transform="translate(159.72850036621094,214)" y="0" x="0" id="text-entity-transactions-a3d7e83a-4348-578f-b8ec-7c8b8dbef31a-attr-9-comment" class="er entityLabel"/><rect height="23" width="87.58415222167969" y="225" x="0" class="er attributeBoxEven"/><text style="dominant-baseline: middle; font-size: 10.2px;" transform="translate(5,236.5)" y="0" x="0" id="text-entity-transactions-a3d7e83a-4348-578f-b8ec-7c8b8dbef31a-attr-10-type" class="er entityLabel">DateTime</text><rect height="23" width="67.14434814453125" y="225" x="87.58415222167969" class="er attributeBoxEven"/><text style="dominant-baseline: middle; font-size: 10.2px;" transform="translate(92.58415222167969,236.5)" y="0" x="0" id="text-entity-transactions-a3d7e83a-4348-578f-b8ec-7c8b8dbef31a-attr-10-name" class="er entityLabel">deleted_at</text><rect height="23" width="22.578125" y="225" x="154.72850036621094" class="er attributeBoxEven"/><text style="dominant-baseline: middle; font-size: 10.2px;" transform="translate(159.72850036621094,236.5)" y="0" x="0" id="text-entity-transactions-a3d7e83a-4348-578f-b8ec-7c8b8dbef31a-attr-10-comment" class="er entityLabel">❓</text></g><g transform="translate(399.831241607666,255 )" id="entity-budgets-998ee43b-d48b-5831-8eda-756ba70f3d26"><rect height="180" width="140.53590393066406" y="0" x="0" class="er entityBox"/><text style="dominant-baseline: middle; text-anchor: middle; font-size: 12px;" transform="translate(70.26795196533203,12)" y="0" x="0" id="text-entity-budgets-998ee43b-d48b-5831-8eda-756ba70f3d26" class="er entityLabel">budgets</text><rect height="23" width="54.095550537109375" y="24" x="0" class="er attributeBoxOdd"/><text style="dominant-baseline: middle; font-size: 10.2px;" transform="translate(5,35.5)" y="0" x="0" id="text-entity-budgets-998ee43b-d48b-5831-8eda-756ba70f3d26-attr-1-type" class="er entityLabel">String</text><rect height="23" width="63.86222839355469" y="24" x="54.095550537109375" class="er attributeBoxOdd"/><text style="dominant-baseline: middle; font-size: 10.2px;" transform="translate(59.095550537109375,35.5)" y="0" x="0" id="text-entity-budgets-998ee43b-d48b-5831-8eda-756ba70f3d26-attr-1-name" class="er entityLabel">id</text><rect height="23" width="22.578125" y="24" x="117.95777893066406" class="er attributeBoxOdd"/><text style="dominant-baseline: middle; font-size: 10.2px;" transform="translate(122.95777893066406,35.5)" y="0" x="0" id="text-entity-budgets-998ee43b-d48b-5831-8eda-756ba70f3d26-attr-1-comment" class="er entityLabel">🗝️</text><rect height="22" width="54.095550537109375" y="47" x="0" class="er attributeBoxEven"/><text style="dominant-baseline: middle; font-size: 10.2px;" transform="translate(5,58)" y="0" x="0" id="text-entity-budgets-998ee43b-d48b-5831-8eda-756ba70f3d26-attr-2-type" class="er entityLabel">String</text><rect height="22" width="63.86222839355469" y="47" x="54.095550537109375" class="er attributeBoxEven"/><text style="dominant-baseline: middle; font-size: 10.2px;" transform="translate(59.095550537109375,58)" y="0" x="0" id="text-entity-budgets-998ee43b-d48b-5831-8eda-756ba70f3d26-attr-2-name" class="er entityLabel">user_id</text><rect height="22" width="22.578125" y="47" x="117.95777893066406" class="er attributeBoxEven"/><text style="dominant-baseline: middle; font-size: 10.2px;" transform="translate(122.95777893066406,58)" y="0" x="0" id="text-entity-budgets-998ee43b-d48b-5831-8eda-756ba70f3d26-attr-2-comment" class="er entityLabel"/><rect height="23" width="54.095550537109375" y="69" x="0" class="er attributeBoxOdd"/><text style="dominant-baseline: middle; font-size: 10.2px;" transform="translate(5,80.5)" y="0" x="0" id="text-entity-budgets-998ee43b-d48b-5831-8eda-756ba70f3d26-attr-3-type" class="er entityLabel">String</text><rect height="23" width="63.86222839355469" y="69" x="54.095550537109375" class="er attributeBoxOdd"/><text style="dominant-baseline: middle; font-size: 10.2px;" transform="translate(59.095550537109375,80.5)" y="0" x="0" id="text-entity-budgets-998ee43b-d48b-5831-8eda-756ba70f3d26-attr-3-name" class="er entityLabel">category_id</text><rect height="23" width="22.578125" y="69" x="117.95777893066406" class="er attributeBoxOdd"/><text style="dominant-baseline: middle; font-size: 10.2px;" transform="translate(122.95777893066406,80.5)" y="0" x="0" id="text-entity-budgets-998ee43b-d48b-5831-8eda-756ba70f3d26-attr-3-comment" class="er entityLabel">❓</text><rect height="22" width="54.095550537109375" y="92" x="0" class="er attributeBoxEven"/><text style="dominant-baseline: middle; font-size: 10.2px;" transform="translate(5,103)" y="0" x="0" id="text-entity-budgets-998ee43b-d48b-5831-8eda-756ba70f3d26-attr-4-type" class="er entityLabel">String</text><rect height="22" width="63.86222839355469" y="92" x="54.095550537109375" class="er attributeBoxEven"/><text style="dominant-baseline: middle; font-size: 10.2px;" transform="translate(59.095550537109375,103)" y="0" x="0" id="text-entity-budgets-998ee43b-d48b-5831-8eda-756ba70f3d26-attr-4-name" class="er entityLabel">month</text><rect height="22" width="22.578125" y="92" x="117.95777893066406" class="er attributeBoxEven"/><text style="dominant-baseline: middle; font-size: 10.2px;" transform="translate(122.95777893066406,103)" y="0" x="0" id="text-entity-budgets-998ee43b-d48b-5831-8eda-756ba70f3d26-attr-4-comment" class="er entityLabel"/><rect height="22" width="54.095550537109375" y="114" x="0" class="er attributeBoxOdd"/><text style="dominant-baseline: middle; font-size: 10.2px;" transform="translate(5,125)" y="0" x="0" id="text-entity-budgets-998ee43b-d48b-5831-8eda-756ba70f3d26-attr-5-type" class="er entityLabel">Decimal</text><rect height="22" width="63.86222839355469" y="114" x="54.095550537109375" class="er attributeBoxOdd"/><text style="dominant-baseline: middle; font-size: 10.2px;" transform="translate(59.095550537109375,125)" y="0" x="0" id="text-entity-budgets-998ee43b-d48b-5831-8eda-756ba70f3d26-attr-5-name" class="er entityLabel">amount</text><rect height="22" width="22.578125" y="114" x="117.95777893066406" class="er attributeBoxOdd"/><text style="dominant-baseline: middle; font-size: 10.2px;" transform="translate(122.95777893066406,125)" y="0" x="0" id="text-entity-budgets-998ee43b-d48b-5831-8eda-756ba70f3d26-attr-5-comment" class="er entityLabel"/><rect height="22" width="54.095550537109375" y="136" x="0" class="er attributeBoxEven"/><text style="dominant-baseline: middle; font-size: 10.2px;" transform="translate(5,147)" y="0" x="0" id="text-entity-budgets-998ee43b-d48b-5831-8eda-756ba70f3d26-attr-6-type" class="er entityLabel">DateTime</text><rect height="22" width="63.86222839355469" y="136" x="54.095550537109375" class="er attributeBoxEven"/><text style="dominant-baseline: middle; font-size: 10.2px;" transform="translate(59.095550537109375,147)" y="0" x="0" id="text-entity-budgets-998ee43b-d48b-5831-8eda-756ba70f3d26-attr-6-name" class="er entityLabel">created_at</text><rect height="22" width="22.578125" y="136" x="117.95777893066406" class="er attributeBoxEven"/><text style="dominant-baseline: middle; font-size: 10.2px;" transform="translate(122.95777893066406,147)" y="0" x="0" id="text-entity-budgets-998ee43b-d48b-5831-8eda-756ba70f3d26-attr-6-comment" class="er entityLabel"/><rect height="22" width="54.095550537109375" y="158" x="0" class="er attributeBoxOdd"/><text style="dominant-baseline: middle; font-size: 10.2px;" transform="translate(5,169)" y="0" x="0" id="text-entity-budgets-998ee43b-d48b-5831-8eda-756ba70f3d26-attr-7-type" class="er entityLabel">DateTime</text><rect height="22" width="63.86222839355469" y="158" x="54.095550537109375" class="er attributeBoxOdd"/><text style="dominant-baseline: middle; font-size: 10.2px;" transform="translate(59.095550537109375,169)" y="0" x="0" id="text-entity-budgets-998ee43b-d48b-5831-8eda-756ba70f3d26-attr-7-name" class="er entityLabel">updated_at</text><rect height="22" width="22.578125" y="158" x="117.95777893066406" class="er attributeBoxOdd"/><text style="dominant-baseline: middle; font-size: 10.2px;" transform="translate(122.95777893066406,169)" y="0" x="0" id="text-entity-budgets-998ee43b-d48b-5831-8eda-756ba70f3d26-attr-7-comment" class="er entityLabel"/></g><g transform="translate(20,266.5 )" id="entity-monthlygoals-d0f44d77-665c-5580-b22b-7f8b2ea52138"><rect height="157" width="153.28695678710938" y="0" x="0" class="er entityBox"/><text style="dominant-baseline: middle; text-anchor: middle; font-size: 12px;" transform="translate(76.64347839355469,12)" y="0" x="0" id="text-entity-monthlygoals-d0f44d77-665c-5580-b22b-7f8b2ea52138" class="er entityLabel">monthly_goals</text><rect height="23" width="54.095550537109375" y="24" x="0" class="er attributeBoxOdd"/><text style="dominant-baseline: middle; font-size: 10.2px;" transform="translate(5,35.5)" y="0" x="0" id="text-entity-monthlygoals-d0f44d77-665c-5580-b22b-7f8b2ea52138-attr-1-type" class="er entityLabel">String</text><rect height="23" width="76.61328125" y="24" x="54.095550537109375" class="er attributeBoxOdd"/><text style="dominant-baseline: middle; font-size: 10.2px;" transform="translate(59.095550537109375,35.5)" y="0" x="0" id="text-entity-monthlygoals-d0f44d77-665c-5580-b22b-7f8b2ea52138-attr-1-name" class="er entityLabel">id</text><rect height="23" width="22.578125" y="24" x="130.70883178710938" class="er attributeBoxOdd"/><text style="dominant-baseline: middle; font-size: 10.2px;" transform="translate(135.70883178710938,35.5)" y="0" x="0" id="text-entity-monthlygoals-d0f44d77-665c-5580-b22b-7f8b2ea52138-attr-1-comment" class="er entityLabel">🗝️</text><rect height="22" width="54.095550537109375" y="47" x="0" class="er attributeBoxEven"/><text style="dominant-baseline: middle; font-size: 10.2px;" transform="translate(5,58)" y="0" x="0" id="text-entity-monthlygoals-d0f44d77-665c-5580-b22b-7f8b2ea52138-attr-2-type" class="er entityLabel">String</text><rect height="22" width="76.61328125" y="47" x="54.095550537109375" class="er attributeBoxEven"/><text style="dominant-baseline: middle; font-size: 10.2px;" transform="translate(59.095550537109375,58)" y="0" x="0" id="text-entity-monthlygoals-d0f44d77-665c-5580-b22b-7f8b2ea52138-attr-2-name" class="er entityLabel">user_id</text><rect height="22" width="22.578125" y="47" x="130.70883178710938" class="er attributeBoxEven"/><text style="dominant-baseline: middle; font-size: 10.2px;" transform="translate(135.70883178710938,58)" y="0" x="0" id="text-entity-monthlygoals-d0f44d77-665c-5580-b22b-7f8b2ea52138-attr-2-comment" class="er entityLabel"/><rect height="22" width="54.095550537109375" y="69" x="0" class="er attributeBoxOdd"/><text style="dominant-baseline: middle; font-size: 10.2px;" transform="translate(5,80)" y="0" x="0" id="text-entity-monthlygoals-d0f44d77-665c-5580-b22b-7f8b2ea52138-attr-3-type" class="er entityLabel">String</text><rect height="22" width="76.61328125" y="69" x="54.095550537109375" class="er attributeBoxOdd"/><text style="dominant-baseline: middle; font-size: 10.2px;" transform="translate(59.095550537109375,80)" y="0" x="0" id="text-entity-monthlygoals-d0f44d77-665c-5580-b22b-7f8b2ea52138-attr-3-name" class="er entityLabel">month</text><rect height="22" width="22.578125" y="69" x="130.70883178710938" class="er attributeBoxOdd"/><text style="dominant-baseline: middle; font-size: 10.2px;" transform="translate(135.70883178710938,80)" y="0" x="0" id="text-entity-monthlygoals-d0f44d77-665c-5580-b22b-7f8b2ea52138-attr-3-comment" class="er entityLabel"/><rect height="22" width="54.095550537109375" y="91" x="0" class="er attributeBoxEven"/><text style="dominant-baseline: middle; font-size: 10.2px;" transform="translate(5,102)" y="0" x="0" id="text-entity-monthlygoals-d0f44d77-665c-5580-b22b-7f8b2ea52138-attr-4-type" class="er entityLabel">Decimal</text><rect height="22" width="76.61328125" y="91" x="54.095550537109375" class="er attributeBoxEven"/><text style="dominant-baseline: middle; font-size: 10.2px;" transform="translate(59.095550537109375,102)" y="0" x="0" id="text-entity-monthlygoals-d0f44d77-665c-5580-b22b-7f8b2ea52138-attr-4-name" class="er entityLabel">savings_target</text><rect height="22" width="22.578125" y="91" x="130.70883178710938" class="er attributeBoxEven"/><text style="dominant-baseline: middle; font-size: 10.2px;" transform="translate(135.70883178710938,102)" y="0" x="0" id="text-entity-monthlygoals-d0f44d77-665c-5580-b22b-7f8b2ea52138-attr-4-comment" class="er entityLabel"/><rect height="22" width="54.095550537109375" y="113" x="0" class="er attributeBoxOdd"/><text style="dominant-baseline: middle; font-size: 10.2px;" transform="translate(5,124)" y="0" x="0" id="text-entity-monthlygoals-d0f44d77-665c-5580-b22b-7f8b2ea52138-attr-5-type" class="er entityLabel">DateTime</text><rect height="22" width="76.61328125" y="113" x="54.095550537109375" class="er attributeBoxOdd"/><text style="dominant-baseline: middle; font-size: 10.2px;" transform="translate(59.095550537109375,124)" y="0" x="0" id="text-entity-monthlygoals-d0f44d77-665c-5580-b22b-7f8b2ea52138-attr-5-name" class="er entityLabel">created_at</text><rect height="22" width="22.578125" y="113" x="130.70883178710938" class="er attributeBoxOdd"/><text style="dominant-baseline: middle; font-size: 10.2px;" transform="translate(135.70883178710938,124)" y="0" x="0" id="text-entity-monthlygoals-d0f44d77-665c-5580-b22b-7f8b2ea52138-attr-5-comment" class="er entityLabel"/><rect height="22" width="54.095550537109375" y="135" x="0" class="er attributeBoxEven"/><text style="dominant-baseline: middle; font-size: 10.2px;" transform="translate(5,146)" y="0" x="0" id="text-entity-monthlygoals-d0f44d77-665c-5580-b22b-7f8b2ea52138-attr-6-type" class="er entityLabel">DateTime</text><rect height="22" width="76.61328125" y="135" x="54.095550537109375" class="er attributeBoxEven"/><text style="dominant-baseline: middle; font-size: 10.2px;" transform="translate(59.095550537109375,146)" y="0" x="0" id="text-entity-monthlygoals-d0f44d77-665c-5580-b22b-7f8b2ea52138-attr-6-name" class="er entityLabel">updated_at</text><rect height="22" width="22.578125" y="135" x="130.70883178710938" class="er attributeBoxEven"/><text style="dominant-baseline: middle; font-size: 10.2px;" transform="translate(135.70883178710938,146)" y="0" x="0" id="text-entity-monthlygoals-d0f44d77-665c-5580-b22b-7f8b2ea52138-attr-6-comment" class="er entityLabel"/></g><rect height="14" width="42.25390625" y="195.07371520996094" x="393.8197937011719" class="er relationshipLabelBox"/><text style="text-anchor: middle; dominant-baseline: middle; font-size: 12px;" y="202.07371520996094" x="414.9467468261719" id="rel1" class="er relationshipLabel">budgets</text><rect height="14" width="55.642578125" y="365.0602722167969" x="257.2638244628906" class="er relationshipLabelBox"/><text style="text-anchor: middle; dominant-baseline: middle; font-size: 12px;" y="372.0602722167969" x="285.0851135253906" id="rel2" class="er relationshipLabel">categories</text><rect height="14" width="73.126953125" y="165.13885498046875" x="95.74832153320312" class="er relationshipLabelBox"/><text style="text-anchor: middle; dominant-baseline: middle; font-size: 12px;" y="172.13885498046875" x="132.31179809570312" id="rel3" class="er relationshipLabel">monthlyGoals</text><rect height="14" width="65.5625" y="535.3816528320312" x="-124.4592514038086" class="er relationshipLabelBox"/><text style="text-anchor: middle; dominant-baseline: middle; font-size: 12px;" y="542.3816528320312" x="-91.6780014038086" id="rel4" class="er relationshipLabel">transactions</text><rect height="14" width="58.38671875" y="780.2218627929688" x="-177.6163330078125" class="er relationshipLabelBox"/><text style="text-anchor: middle; dominant-baseline: middle; font-size: 12px;" y="787.2218627929688" x="-148.4229736328125" id="rel5" class="er relationshipLabel">enum:type</text><rect height="14" width="42.25390625" y="478.1897277832031" x="492.74951171875" class="er relationshipLabelBox"/><text style="text-anchor: middle; dominant-baseline: middle; font-size: 12px;" y="485.1897277832031" x="513.87646484375" id="rel6" class="er relationshipLabel">budgets</text><rect height="14" width="23.958984375" y="274.82672119140625" x="639.3029174804688" class="er relationshipLabelBox"/><text style="text-anchor: middle; dominant-baseline: middle; font-size: 12px;" y="281.82672119140625" x="651.2824096679688" id="rel7" class="er relationshipLabel">user</text><rect height="14" width="65.5625" y="734.3236083984375" x="387.96368408203125" class="er relationshipLabelBox"/><text style="text-anchor: middle; dominant-baseline: middle; font-size: 12px;" y="741.3236083984375" x="420.74493408203125" id="rel8" class="er relationshipLabel">transactions</text><rect height="14" width="58.38671875" y="1111.6241455078125" x="324.532470703125" class="er relationshipLabelBox"/><text style="text-anchor: middle; dominant-baseline: middle; font-size: 12px;" y="1118.6241455078125" x="353.725830078125" id="rel9" class="er relationshipLabel">enum:type</text><rect height="14" width="47.67578125" y="743.4719848632812" x="598.6392822265625" class="er relationshipLabelBox"/><text style="text-anchor: middle; dominant-baseline: middle; font-size: 12px;" y="750.4719848632812" x="622.4771728515625" id="rel10" class="er relationshipLabel">category</text><rect height="14" width="23.958984375" y="410.70050048828125" x="743.2534790039062" class="er relationshipLabelBox"/><text style="text-anchor: middle; dominant-baseline: middle; font-size: 12px;" y="417.70050048828125" x="755.2329711914062" id="rel11" class="er relationshipLabel">user</text><rect height="14" width="47.67578125" y="478.1897888183594" x="402.4836730957031" class="er relationshipLabelBox"/><text style="text-anchor: middle; dominant-baseline: middle; font-size: 12px;" y="485.1897888183594" x="426.3215637207031" id="rel12" class="er relationshipLabel">category</text><rect height="14" width="23.958984375" y="175.18832397460938" x="465.8248596191406" class="er relationshipLabelBox"/><text style="text-anchor: middle; dominant-baseline: middle; font-size: 12px;" y="182.18832397460938" x="477.8043518066406" id="rel13" class="er relationshipLabel">user</text><rect height="14" width="23.958984375" y="183.3803253173828" x="163.43215942382812" class="er relationshipLabelBox"/><text style="text-anchor: middle; dominant-baseline: middle; font-size: 12px;" y="190.3803253173828" x="175.41165161132812" id="rel14" class="er relationshipLabel">user</text></svg>